<?xml version="1.0" encoding="UTF-8"?>
<svg version="1.1" viewBox="0 0 1020.1 1018.7" xmlns="http://www.w3.org/2000/svg">
<g transform="translate(-81.511 -66.228)">
<path d="m563.81 1084.6c-75.544-5.4087-137.11-21.74-200.04-53.06-132.49-65.949-229.18-185.24-266.82-329.19-10.672-40.814-15.394-79.332-15.448-126.01-0.084666-73.816 11.864-132.24 41.829-204.51 4.9211-11.87 25.021-50.073 33.551-63.769 33.974-54.55 79.804-104.32 131.07-142.33 76.171-56.478 168.15-90.945 262.44-98.349 19.356-1.5198 63.034-1.4984 82.793 0.0405 85.601 6.6669 169.45 35.746 241.43 83.726 46.839 31.223 92.951 74.941 126.73 120.16 33.182 44.41 60.393 97.444 76.774 149.63 11.022 35.111 17.083 64.231 21.406 102.83 2.7839 24.862 2.7942 78.062 0.02 102.83-7.1578 63.912-23.362 120.11-50.112 173.8-25.284 50.744-52.593 89.297-91.63 129.36-43.228 44.366-87.834 76.852-142.05 103.45-53.7 26.346-109.55 42.367-171.66 49.243-15.517 1.7181-67.065 3.0987-80.304 2.1508zm67.016-47.828c25.609-1.9063 59.31-7.2268 77.198-12.188 8.4848-2.353 34.769-10.741 37.769-12.053 1.271-0.5558 8.5503-3.4341 16.176-6.3961 28.129-10.925 63.107-29.398 91.427-48.282 30.692-20.467 76.265-62.898 101.38-94.387 38.715-48.548 69.742-109.99 86.652-171.58 13.962-50.858 17.523-127.25 8.7777-188.34-4.1345-28.878-7.0952-41.391-16.547-69.928-19.093-57.649-47.456-108.84-86.09-155.38-12.689-15.286-44.743-46.884-61.962-61.078-23.268-19.181-39.327-30.142-67.594-46.133-28.654-16.21-69.309-33.109-104.57-43.466-16.628-4.8842-38.276-8.8628-67.594-12.423-23.958-2.9091-83.788-2.925-108.03-0.0286-45.739 5.4637-87.508 16.174-120.17 30.813-1.271 0.5697-6.2105 2.6949-10.977 4.7227-10.489 4.4626-32.464 15.418-42.752 21.314-13.373 7.6638-14.356 8.2402-20.798 12.198-41.912 25.746-88.994 69.172-122.67 113.15-32.802 42.83-62.125 102.55-77.897 158.65-9.3878 33.389-14.345 74.795-14.345 119.82 0 67.068 9.7305 117.46 33.801 175.05 5.3065 12.696 20.199 43.118 26.585 54.306 21.247 37.227 40.997 62.742 74.757 96.578 32.474 32.548 58.406 52.899 92.873 72.886 18.321 10.625 47.718 25.03 64.312 31.515 6.0372 2.3592 12.277 4.8262 13.865 5.4822 11.373 4.6954 46.344 14.993 59.506 17.523 14.637 2.8131 41.607 6.4796 55.461 7.5398 18.401 1.4082 63.334 1.4808 81.459 0.1317zm-113.23-131.92c3e-3 -0.90133 4.3556-2.9068 10.688-4.9234 5.8763-1.8715 11.464-3.8037 12.417-4.2938 0.95324-0.49006 8.2326-3.5123 16.176-6.716 15.116-6.0963 23.416-10.479 21.257-11.224-0.70091-0.24198-9.2801 2.1423-19.065 5.2984-23.535 7.5911-59.481 15.892-79.029 18.249-11.827 1.4263-45.606 1.0185-58.094-0.70133-12.516-1.7237-14.63-3.3795-6.5235-5.109 30.082-6.4179 83.357-20.681 93.504-25.033 1.271-0.54519 4.3907-1.6169 6.9327-2.3817 5.8446-1.7583 11.375-4.5349 10.592-5.3178-0.3298-0.3298-5.1877 0.71143-10.795 2.3139-13.715 3.9192-28.128 7.3357-40.448 9.5877-5.6036 1.0243-12.528 2.3068-15.388 2.85-31.814 6.0431-92.114 6.8236-117.61 1.5225-5.3296-1.108-3.9914-3.2026 2.74-4.2884 3.1252-0.50414 11.662-2.0088 18.97-3.3437 7.3082-1.3349 14.588-2.5635 16.176-2.7302 3.6863-0.38676 25.195-4.7612 33.508-6.8146 3.4952-0.86345 9.2147-2.1892 12.71-2.9461 19.19-4.1557 46.218-13.58 46.218-16.115 0-1.6308-0.53943-1.5634-9.1922 1.1486-12.766 4.0013-43.328 10.599-63.601 13.731-35.75 5.5229-77.946 7.8465-101.68 5.5992-9.3761-0.88784-27.094-4.4606-34.964-7.0504-2.6942-0.88659-7.3684-2.3188-10.387-3.1826-3.0186-0.86385-5.4884-2.2272-5.4884-3.0296 0-1.7738 2.7357-2.4135 13.288-3.1068 9.7394-0.63997 31.222-2.8464 35.241-3.6195 1.5887-0.30561 5.2284-0.82391 8.0881-1.1518 2.8597-0.32788 9.8791-1.4075 15.599-2.3991 5.7195-0.99161 13.581-2.2711 17.47-2.8433 8.9444-1.316 59.449-11.405 60.575-12.101 0.46221-0.28566 11.949-3.3934 25.525-6.9062 30.525-7.8978 40.377-10.88 42.553-12.882 1.9982-1.8376 0.74623-1.9672-15.557-1.6109-5.7195 0.125-14.039-0.3501-18.487-1.0558-8.5463-1.3557-23.687-6.6709-23.687-8.3154 0-0.53509 4.0296-0.98112 8.9547-0.99119 13.13-0.0268 35.187-1.9783 47.084-4.1659 15.059-2.7689 36.423-12.017 40.642-17.592 3.717-4.9122 6.7558-7.5271 14.305-12.309 7.0602-4.4726 23.075-19.811 25.502-24.426 1.0335-1.9646 5.3125-6.1117 9.5088-9.2157 4.1963-3.1041 7.6403-6.4919 7.6533-7.5286 0.0291-2.3234-6.7806-7.6455-14.178-11.08-11.494-5.3376-25.272-17.992-32.818-30.143-4.2236-6.801-3.226-8.7369 2.3217-4.5054 2.0522 1.5653 6.8393 3.5156 10.638 4.334 3.7987 0.81843 7.459 1.9047 8.134 2.414 1.9775 1.4919 24.41 2.6827 23.037 1.2229-0.6355-0.67561-9.7336-5.4738-20.218-10.663-24.033-11.894-35.972-19.794-49.109-32.493-8.6322-8.3448-10.045-10.19-8.3137-10.859 1.8576-0.71827 3.81-0.0561 12.642 4.288 5.4114 2.6617 30.254 10.314 35.164 10.831l5.5705 0.58717-7.5406-3.7755c-4.1473-2.0765-10.307-4.9651-13.688-6.419-11.35-4.881-38.181-21.819-51.339-32.409-13.633-10.973-36.898-42.941-31.25-42.941 0.41313 0 4.7027 2.5157 9.5324 5.5904 21.93 13.961 63.313 34.607 74.353 37.095 2.3831 0.53696 4.3329 0.74917 4.3329 0.47159s-4.8096-2.8726-10.688-5.7666c-39.49-19.442-77.675-53.8-97.792-87.992-1.9794-3.3643-3.5989-6.354-3.5989-6.6438 0-1.1632 4.4179-0.43211 5.5436 0.91743 1.4088 1.689 22.118 16.013 39.598 27.389 21.928 14.271 43.528 24.783 49.49 24.086 2.4145-0.28226 0.49363-1.7433-10.27-7.8116-11.444-6.4515-30.096-18.428-40.56-26.044-4.5542-3.3145-20.884-17.308-29.663-25.42-16.84-15.559-33.267-40.444-38.899-58.928-1.1619-3.813-2.3612-7.5826-2.6652-8.377-1.3117-3.4276 4.0263-0.9861 10.105 4.6218 15.388 14.196 40.089 32.935 64.331 48.803 13.851 9.0664 16.644 10.672 26.682 15.34 8.7859 4.0855 13.836 4.5693 7.7206 0.7396-1.9318-1.2097-7.6513-5.2837-12.71-9.0532-5.0586-3.7696-13.091-9.7491-17.849-13.288-45.422-33.779-78.155-71.404-89.025-102.33-1.1178-3.1803-2.4014-6.6923-2.8524-7.8045-1.7839-4.3989 3.7217-1.8059 12.266 5.7772 41.18 36.546 75.979 64.406 90.009 72.063 1.8838 1.028 4.1379 2.4606 5.009 3.1836 1.5528 1.2887 14.038 5.924 15.956 5.924 2.0446 0 0.8369-3.5427-2.5052-7.3492-2.9039-3.3074-34.62-28.438-43.222-34.247-7.3599-4.9706-29.611-24.312-43.202-37.552-29.391-28.633-50.269-57.199-63.922-87.459-9.5362-21.136-16.964-46.875-14.047-48.678 0.57383-0.35464 4.6085 3.3536 8.9659 8.2405 28.828 32.331 50.137 54.078 74.559 76.089 16.717 15.066 33.424 29.195 42.174 35.664 2.542 1.8794 7.6908 5.9342 11.442 9.0107 3.7511 3.0764 8.6906 6.812 10.977 8.3012 2.2861 1.4893 7.0164 4.8147 10.512 7.3897 9.0924 6.6987 22.663 16.38 27.685 19.751 16.516 11.085 45.599 34.631 62.673 50.74 8.7937 8.2969 10.09 8.4144 3.3807 0.30659-13.163-15.906-26.867-39.79-32.273-56.246-3.6294-11.047-5.465-21.376-3.799-21.376 1.5531 0 5.116 3.4839 10.044 9.8213 2.4708 3.1775 8.9148 10.925 14.32 17.217 5.4052 6.2921 12.133 14.351 14.95 17.909 13.421 16.949 44.548 44.998 47.102 42.444 1.8592-1.8592-2.1821-7.4938-15.49-21.598-8.1296-8.6157-16.308-17.455-18.175-19.643-1.867-2.1877-6.8639-7.8773-11.104-12.644-12.119-13.622-28.377-36.917-37.307-53.456-4.4348-8.2135-12.371-26.352-15.101-34.514-5.3795-16.082-10.113-47.54-7.5291-50.037 1.4203-1.373 2.0572-0.63922 8.9665 10.331 2.4015 3.813 5.8958 9.2122 7.7652 11.998 1.8694 2.7861 4.9587 7.5477 6.8652 10.581 6.3659 10.129 30.135 41.96 40.858 54.716 16.599 19.746 23.902 27.59 47.441 50.959 52.249 51.869 78.612 87.29 92.021 123.63 1.6412 4.4485 3.4339 9.128 3.9837 10.399 0.54985 1.271 1.3239 3.6108 1.7202 5.1995 1.5337 6.1492 5.5299 16.176 6.447 16.176 0.52983 0 2.7887-1.2387 5.0196-2.7527 2.231-1.514 6.0237-3.1024 8.4283-3.5299 2.4046-0.42746 8.5315-2.025 13.616-3.55 20.251-6.0748 50.416-9.3099 77.993-8.3645 14.081 0.48276 19.983 2.3946 28.433 9.2107 1.8382 1.4828 5.4747 4.1285 8.0812 5.8794s8.5609 7.6719 13.232 13.158c4.6713 5.486 10.768 12.071 13.548 14.634 7.3562 6.7807 8.7302 10.072 8.0681 19.326-0.62299 8.7064-3.4716 14.47-9.1502 18.513l-3.4857 2.482-3.0767-2.4982c-5.905-4.7947-14.914-8.2016-21.687-8.2016-10.163 0-32.703 4.3702-39.5 7.6583-5.4063 2.6155-7.0096 4.3184-13.835 14.693-4.2459 6.454-8.8006 14.198-10.121 17.21-1.3209 3.0114-3.7209 6.911-5.3331 8.6659-4.8781 5.3092-13.604 17.236-18.468 25.243-6.3541 10.459-21.743 41.457-22.527 45.375-0.57836 2.892 0.33346 4.0726 8.903 11.526 10.904 9.4844 15.484 11.857 36.066 18.683 17.571 5.8276 18.68 5.7658 34.245-1.9084 11.629-5.7337 14.31-8.0963 25.035-22.06 3.5349-4.6022 6.8639-8.6377 7.3978-8.9677 0.5339-0.32997 3.6592-1.1098 6.9453-1.733 4.8382-0.91754 7.5273-2.4727 14.137-8.176 11.379-9.8179 16.446-12.826 20.879-12.397 4.136 0.40082 5.137 3.5119 1.3611 4.2302-1.2709 0.24178-3.7102 1.4324-5.4204 2.6459-2.7773 1.9706-3.086 2.8686-2.8886 8.4058 0.30573 8.5807-1.0938 9.9415-16.244 15.795-2.1953 0.84816-2.5998 1.8669-2.5998 6.5493 0 6.6826-1.782 9.4742-8.5969 13.468-4.1244 2.4171-5.881 4.5209-8.6912 10.409-2.0588 4.3138-3.8238 10.266-4.2482 14.326-0.63269 6.0528-0.37185 7.5152 2.0282 11.371 1.5148 2.4337 3.6386 6.3772 4.7197 8.7632 2.4506 5.4089 5.3143 5.6301 11.319 0.87455 5.081-4.0242 5.2583-4.5728 6.9103-21.378 2.3907-24.319 4.5729-30.805 11.858-35.247 2.0711-1.2628 5.4775-2.298 7.5696-2.3003l3.8039-4e-3 -4.6705 4.4429c-5.6873 5.4102-6.4252 10.563-1.8137 12.664 4.8914 2.2287 4.8884 7.0577-0.0147 23.031-1.3988 4.5569 2.2854 4.321 8.9232-0.57133 3.3791-2.4905 8.4191-5.9603 11.2-7.7107 2.7809-1.7504 9.8155-8.0434 15.632-13.984 10.162-10.379 15.517-14.013 18.796-12.755 2.3559 0.90404 1.8239 2.9172-1.0659 4.0335-1.4299 0.55234-3.8139 2.31-5.298 3.9059-2.616 2.8132-2.637 2.9949-0.69033 5.966 1.925 2.9379 1.9127 3.1928-0.29663 6.1757-1.2675 1.7112-4.0766 4.243-6.2424 5.6262-3.94 2.5162-18.217 14.57-26.639 22.492-5.5186 5.1904-5.0688 7.9237 1.304 7.9237 2.3941 0 6.628-0.80636 9.4088-1.7919 5.9677-2.115 13.051-3.1936 21.788-3.3177 4.9601-0.0704 6.4122 0.31533 6.6991 1.7798 0.28606 1.4594-0.85116 1.9867-5.1824 2.4029-3.7002 0.35552-9.9742 2.7676-18.831 7.2396-7.3053 3.6885-16.142 7.5818-19.637 8.6517l-6.355 1.9453-9e-3 7.4326c-0.01 9.0378-1.1261 11.12-7.6453 14.249-4.5251 2.172-5.0955 2.8951-5.4225 6.8736-0.24628 2.9974 0.28476 5.1646 1.6298 6.6509 2.4577 2.7157 1.5249 3.8615-2.3515 2.8886-5.184-1.3011-6.7507-5.231-5.2921-13.275 1.4355-7.9164 0.50947-17.935-1.8379-19.883-0.97031-0.80533-4.8574-1.1368-10.18-0.86798-7.1532 0.36122-9.1112 0.90558-11.572 3.2172-1.6289 1.5303-2.9617 3.9622-2.9617 5.4041 0 3.9502-4.0997 6.2464-9.7658 5.4698-5.9937-0.82153-7.2854 0.59254-8.7476 9.5765-1.9407 11.924-7.5601 16.528-17.721 14.519-6.3067-1.2466-9.9843-0.26987-9.9843 2.6517 0 2.1021-3.5922 4.0441-7.4804 4.0441-3.2247 0-11.519 3.814-14.264 6.5589-1.4554 1.4554-2.0568 1.3041-4.6942-1.1813-1.7225-1.6232-5.0149-3.1271-7.6467-3.4927-2.542-0.35315-4.6888-0.66173-4.7706-0.68573-0.0815-0.024-0.79908-1.614-1.5942-3.5334-2.2387-5.405-7.8258-9.5596-11.789-8.7668-2.8776 0.57552-4.5983-0.51457-13.715-8.6888l-10.425-9.3469-4.6912 1.1907c-4.5415 1.1528-4.8252 1.0519-8.8946-3.1634-2.3119-2.3948-6.9717-6.2807-10.355-8.6355l-6.1517-4.2813-5.0944 2.9855c-2.8018 1.642-6.533 4.9058-8.2913 7.2528-5.5777 7.4451-11.583 12.72-16.126 14.164-2.4215 0.76969-7.0024 3.8841-10.18 6.9209-5.1467 4.9185-15.653 11.547-18.303 11.547-1.1465 0-7.8675 2.8075-12.894 5.3859-4.6525 2.3867-19.013 7.1214-42.752 14.095-22.493 6.6078-31.129 8.7228-43.329 10.611-4.7662 0.73789-11.01 1.7144-13.875 2.17-2.8649 0.45557-10.794 0.95663-17.621 1.1134-9.6378 0.22133-12.411-0.0546-12.408-1.2358zm339.48-98.793c0.49768-5.1228-1.6959-12.505-4.7284-15.913-2.2977-2.5818-3.745-2.9529-14.115-3.619-18.575-1.1931-26.899 2.4027-19.548 8.4444 7.7253 6.3494 30.342 15.668 36.302 14.956 1.043-0.12445 1.8749-1.6652 2.0891-3.8692z" stroke-width="1.1554"/>
</g>
</svg>
