<?xml version="1.0" encoding="utf-8"?>
<!-- Generator: Adobe Illustrator 23.0.1, SVG Export Plug-In . SVG Version: 6.00 Build 0)  -->
<svg version="1.1" id="Livello_1" xmlns="http://www.w3.org/2000/svg" xmlns:xlink="http://www.w3.org/1999/xlink" x="0px" y="0px"
	 width="283.397px" height="500px" viewBox="0 0 283.397 500" enable-background="new 0 0 283.397 500" xml:space="preserve">
<g>
	<path fill="#0057B8" d="M278.483,92.655c-22.259-6.172-44.879-10.828-67.707-13.931c-22.828-3.103-45.879-4.69-68.966-4.69h-0.103
		c-46.224,0-92.259,6.259-136.793,18.621l-4.897,1.362V358.31c0,78.121,63.552,141.69,141.69,141.69
		c78.121,0,141.69-63.552,141.69-141.69V94L278.483,92.655z M270.017,358.293c0,70.759-57.569,128.328-128.328,128.328
		S13.362,429.052,13.362,358.293V104.19c41.845-11.155,85-16.81,128.328-16.81h0.103c43.293,0,86.397,5.655,128.224,16.81V358.293z"
		/>
	<g>
		<path fill="#0057B8" d="M26.224,117.052v70.707h14.517v-70.707H26.224z"/>
		<path fill="#0057B8" d="M48.879,117.052v13.379h11.862v57.328h14.517v-57.345h11.845v-13.362H48.879z"/>
		<path fill="#0057B8" d="M114.914,117.052h-13.379l-19.293,70.707h14.724l3.448-13.483h16.241l3.621,13.483H135L114.914,117.052z
			 M103.931,160.914l4.483-23.121l4.5,23.121H103.931z"/>
		<path fill="#0057B8" d="M156.414,174.379v-57.328h-14.534v70.707h33.069v-13.379H156.414z"/>
		<path fill="#0057B8" d="M183.672,117.052v70.707h14.517v-70.707H183.672z"/>
		<path fill="#0057B8" d="M237.086,117.052h-13.379l-19.293,70.707h14.724l3.448-13.483h16.241l3.621,13.483h14.724L237.086,117.052
			z M226.103,160.914l4.5-23.121l4.5,23.121H226.103z"/>
	</g>
	<g>
		<path fill="#C5B783" d="M121.534,202.793v-4.845h-11.897v26.569h5.293v-12.034h6.603v-4.845h-6.603v-4.845
			C114.931,202.793,121.534,202.793,121.534,202.793z"/>
		<path fill="#C5B783" d="M125.241,197.931V224.5h5.293v-26.569H125.241z"/>
		<path fill="#C5B783" d="M142.672,210.086v4.845h4.414c0.034,1.241-0.172,2.397-0.776,3.293c-0.466,0.672-1.069,1.172-2,1.362
			c-0.259,0.052-0.517,0.086-0.828,0.086c-2.879,0-4.207-2.276-4.207-8.431c0-6.069,1.431-8.448,4.207-8.448
			c0.293,0,0.569,0.034,0.828,0.086c1.052,0.224,1.69,0.931,2.207,1.914c0.345,0.724,0.552,1.586,0.552,2.655h5.414
			c-0.293-5.603-3.276-9.138-8.172-9.483c-0.276-0.017-0.552-0.034-0.828-0.034c-6.431,0-9.638,5.328-9.638,13.293
			c0,8.293,3.017,13.276,9.638,13.276c0.276,0,0.552,0,0.828-0.034c5.086-0.379,8.19-4.345,8.19-9.448v-4.948h-9.828V210.086z"/>
		<path fill="#C5B783" d="M164.845,219.517c-2.431,0-4.31-2.172-4.31-8.293c0-6.138,1.862-8.31,4.31-8.31
			c2.017,0,3.345,1.069,3.483,5.638h5.414c0.069-5.948-3.086-10.621-9.328-10.621c-5.638,0-9.31,4.328-9.31,13.293
			c0,8.965,3.69,13.276,9.31,13.276c6.052,0,9.293-4.569,9.328-10.414h-5.414C168.19,216.828,167.603,219.517,164.845,219.517z"/>
	</g>
	<path fill="#009F4D" d="M96.776,234.69v229.483c-41.414-17.552-70.552-58.621-70.552-106.362V234.69H96.776z"/>
	<path fill="#FFFFFF" d="M109.638,234.69h64.121v234.052c-10.19,2.948-20.948,4.534-32.069,4.534
		c-11.121,0-21.879-1.586-32.052-4.534V234.69z"/>
	<path fill="#E4002B" d="M257.155,234.69V357.81c0,47.741-29.121,88.81-70.552,106.362V234.69H257.155z"/>
	<rect x="26.224" y="206.138" fill="#C5B783" width="70.552" height="10.19"/>
	<rect x="186.603" y="206.138" fill="#C5B783" width="70.552" height="10.19"/>
	<polygon fill="#0057B8" points="28.31,54.534 45.81,63.862 42.483,44.345 56.621,31.121 37.052,27.966 37.069,27.983 
		37.052,27.966 28.31,10.155 28.31,10.155 28.31,10.155 19.586,27.966 19.569,27.983 19.569,27.966 0,31.121 14.155,44.345 
		10.828,63.862 	"/>
	<polygon fill="#0057B8" points="255.069,54.534 272.552,63.862 269.224,44.345 283.362,31.121 263.793,27.966 263.81,27.983 
		263.793,27.966 255.069,10.155 255.069,10.155 255.069,10.155 246.328,27.966 246.31,27.983 246.328,27.966 226.759,31.121 
		240.897,44.345 237.569,63.862 	"/>
	<polygon fill="#0057B8" points="179.483,44.362 196.966,53.69 193.655,34.172 207.793,20.948 188.224,17.793 188.224,17.81 
		188.207,17.793 179.483,0 179.483,0 179.483,0 170.741,17.793 170.741,17.81 170.741,17.793 151.172,20.948 165.31,34.172 
		162,53.69 	"/>
	<polygon fill="#0057B8" points="103.897,44.362 121.379,53.69 118.069,34.172 132.207,20.948 112.638,17.793 112.638,17.81 
		112.621,17.793 103.897,0 103.897,0 103.897,0 95.172,17.793 95.155,17.81 95.155,17.793 75.586,20.948 89.724,34.172 
		86.414,53.69 	"/>
</g>
</svg>
