<?xml version="1.0" encoding="UTF-8"?>
<svg version="1.1" viewBox="0 0 484 500" xmlns="http://www.w3.org/2000/svg">
<defs>
<style>.cls-1,.cls-3{fill:#10416a;}.cls-1{stroke:#fff;stroke-miterlimit:10;stroke-width:11px;}.cls-2{fill:#fff;}</style>
</defs>
<path d="m184.84 0v68.647c-23.862 0.33816-46.611 0.82602-64.332 1.6075-19.459 0.85806-33.136 1.7607-40.477 3.5754l-11.595 2.8023 0.1383 33.061v2e-3c0.0936 18.029 0.17787 36.325 0.23806 54.676h-68.808v114.28h68.772c1.974 35.425 14.574 67.238 38.228 95.917 20.894 25.339 46.43 46.851 77.872 65.861v59.567h114.29v-59.589c24.224-14.552 46.499-32.135 66.13-52.477l0.0272-0.0272c31.314-32.843 47.877-69.081 49.924-109.25h68.756v-114.33h-68.686v-6.906c0-22.535-0.082-45.779 0.127-68.756v-0.0023l0.1-12.025-11.669-2.8476c-7.3007-1.7785-20.975-2.6894-40.427-3.5547-17.716-0.78806-40.464-1.2854-64.328-1.6301v-68.604z" color="#000000" fill="#fff" style="-inkscape-stroke:none"/>
<path d="m408.94 157.42c0-22.52-0.081-45.783 0.1277-68.813l0.058-6.9649-6.756-1.6484c-11.434-2.786-56.555-4.504-109.63-5.1656v-68.442h-101.53v68.488c-53.073 0.65006-98.205 2.3216-109.66 5.154l-6.7211 1.6251 0.11608 28.011c0.10448 20.14 0.20895 40.559 0.26699 61.094h-68.837v101.51h68.395c0.71971 36.635 12.885 68.825 37.146 98.24 21.115 25.608 46.909 47.28 79.33 66.445v56.66h101.53v-56.718a316.54 316.54 0 0 0 67.92-53.398c32.097-33.664 48.035-70.113 48.545-111.23h68.372v-101.56h-68.686z" fill="#10416a" stroke-width="1.1608"/>
<path class="cls-2" d="m92.412 95.931v13.593c0.27859 51.401 0.55719 104.55-0.19734 156.95-0.48754 34.825 10.343 65.18 33.13 92.866 28.034 33.989 65.134 60.769 116.55 84.078 43.67-19.49 78.495-43.078 106.11-72.064 30.855-32.352 45.121-67.327 43.6-107.02-0.7197-18.387-0.5456-36.763-0.3715-54.558v-1.1608c0.093-8.1257 0.1742-16.182 0.1742-24.238v-26.954c0-20.117-0.081-40.849 0.058-61.523-46.166-5.2701-252.9-5.2817-299.05 0.02322z" stroke-width="1.1608"/>
<g transform="matrix(1.1608 0 0 1.1608 -714.98 4.2374)">
<path class="cls-3" d="m753.31 215.07v-11.91a1.63 1.63 0 0 0-1.77-1.77h-11a1.58 1.58 0 0 0-1.76 1.77v8.82c0 3-1.55 4.42-4.42 4.42h-5.73c-2.87 0-4.41-1.44-4.41-4.42v-50.3c0-2.87 1.43-4.41 4.41-4.41h5.73c2.87 0 4.42 1.54 4.42 4.41v8.83a1.57 1.57 0 0 0 1.76 1.76h11a1.62 1.62 0 0 0 1.77-1.76v-11.92c0-10.36-5.63-15.88-15.89-15.88h-12.35c-10.37 0-16 5.52-16 15.88v56.48c0 10.37 5.63 15.88 16 15.88h12.35c10.26 0 15.89-5.51 15.89-15.88z"/>
<path class="cls-3" d="m764.33 215.07c0 10.37 5.51 15.88 15.88 15.88h12.35c10.38 0 15.89-5.51 15.89-15.88v-56.48c0-10.36-5.51-15.88-15.89-15.88h-12.35c-10.37 0-15.88 5.52-15.88 15.88zm14.67-53.72c0-2.87 1.54-4.41 4.41-4.41h6.4c2.87 0 4.41 1.54 4.41 4.41v51c0 3-1.54 4.42-4.41 4.42h-6.4c-2.87 0-4.41-1.44-4.41-4.42z"/>
<path class="cls-3" d="m821.68 230.95h10.15a2 2 0 0 0 2.2-2.2v-49.64h0.77l10.92 49.86a2.29 2.29 0 0 0 2.43 2h5.4a2.29 2.29 0 0 0 2.43-2l10.94-49.86h0.77v49.64a2 2 0 0 0 2.21 2.2h10.26a2 2 0 0 0 2.2-2.2v-83.83a2 2 0 0 0-2.2-2.21h-14.58a2.3 2.3 0 0 0-2.43 2l-12.23 54.92-12.25-54.93a2.29 2.29 0 0 0-2.42-2h-14.57a2 2 0 0 0-2.21 2.21v83.84a2 2 0 0 0 2.21 2.2z"/>
<path class="cls-3" d="m923.8 142.71h-12.35c-10.37 0-15.88 5.52-15.88 15.88v56.48c0 10.37 5.51 15.88 15.88 15.88h12.35c10.38 0 15.89-5.51 15.89-15.88v-56.48c0-10.36-5.51-15.88-15.89-15.88zm1.66 69.6c0 3-1.54 4.42-4.41 4.42h-6.4c-2.87 0-4.41-1.44-4.41-4.42v-50.96c0-2.87 1.54-4.41 4.41-4.41h6.4c2.87 0 4.41 1.54 4.41 4.41z"/>
</g>
<g transform="matrix(1.1608 0 0 1.1608 -714.98 4.2374)">
<rect class="cls-3" x="759.48" y="96.27" width="7.61" height="30.25" rx=".82"/>
<path class="cls-3" d="m785.53 116.35a5.34 5.34 0 0 0 1.62 1.08 4.73 4.73 0 0 0 2 0.41h9.64a0.81 0.81 0 0 1 0.58 0.22 0.71 0.71 0 0 1 0.24 0.56v7.09a0.84 0.84 0 0 0 0.21 0.58 0.75 0.75 0 0 0 0.57 0.24h6a0.77 0.77 0 0 0 0.58-0.24 0.78 0.78 0 0 0 0.24-0.58v-24.36a4.85 4.85 0 0 0-0.41-2 5.09 5.09 0 0 0-2.67-2.68 4.93 4.93 0 0 0-2-0.41h-13a4.9 4.9 0 0 0-2 0.41 5.34 5.34 0 0 0-1.62 1.08 4.81 4.81 0 0 0-1.08 1.6 5.18 5.18 0 0 0-0.38 2v11.45a5.2 5.2 0 0 0 0.38 2 4.81 4.81 0 0 0 1.1 1.55zm5.88-13.2h8.43v7.61h-8.43z"/>
<path class="cls-3" d="m827.45 125.05a5.07 5.07 0 0 0 3.59 1.47h13a5 5 0 0 0 2-0.39 4.81 4.81 0 0 0 1.6-1.08 5.73 5.73 0 0 0 1.08-1.62 4.9 4.9 0 0 0 0.41-2v-20.08a4.85 4.85 0 0 0-0.41-2 5.5 5.5 0 0 0-1.08-1.6 5.13 5.13 0 0 0-1.6-1.08 4.86 4.86 0 0 0-2-0.41h-13a4.86 4.86 0 0 0-2 0.41 5.34 5.34 0 0 0-1.62 1.08 4.81 4.81 0 0 0-1.08 1.6 5 5 0 0 0-0.39 2v20.14a5.05 5.05 0 0 0 0.39 2 5 5 0 0 0 1.11 1.56zm5.88-21.44h8.42v15.56h-8.42z"/>
<path class="cls-3" d="m867.29 103.35h13.48l-10.24 19.71-1.47 2.8c-0.2 0.47 0 0.7 0.48 0.7h6.87a1.4 1.4 0 0 0 0.69-0.2 1.05 1.05 0 0 0 0.48-0.5l0.69-1.29 8.55-16.22 2.08-4a3.7 3.7 0 0 0 0.28-0.74 3.32 3.32 0 0 0 0.11-0.78v-5.7a0.83 0.83 0 0 0-0.22-0.58 0.71 0.71 0 0 0-0.56-0.24h-21.22a0.72 0.72 0 0 0-0.82 0.82v5.44a0.71 0.71 0 0 0 0.24 0.56 0.79 0.79 0 0 0 0.58 0.22z"/>
</g>
<g transform="matrix(1.1608 0 0 1.1608 -714.98 4.2374)">
<g fill="#10416a">
<path d="m900.45 255.29c-0.4 0.23-0.84 0.46-1.31 0.71s-1 0.5-1.49 0.75a63.43 63.43 0 0 1-17.84 5.6c-8.73 1.31-17.55 0.76-26.33-0.41-5.09-0.77-10.14-1.73-15.19-2.79-5.27-1.13-10.52-2.35-15.78-3.51s-10.45-2.19-15.71-3.06a94.76 94.76 0 0 0-12.68-1.1c-8.9 0-19.69 1-28 4.41-6.26 2.92-10 4.1-15.08 9.13-1 1-1.86 1.93-2.62 2.78-0.38 0.42-0.73 0.82-1.05 1.19l-0.86 1c-1 1.26-1.18 1.5-1.58 2l-1.92 2.68s0.59-0.37 1.7-1l0.93-0.54 1.13-0.63c0.81-0.44 1.74-0.93 2.8-1.45a65.54 65.54 0 0 1 17.84-5.51c8.71-1.33 17.57-0.75 26.33 0.41 5.09 0.76 10.14 1.71 15.2 2.76 5.26 1.13 10.51 2.31 15.76 3.47s10.45 2.15 15.71 3a132.7 132.7 0 0 0 15 1.37 65.73 65.73 0 0 0 25.65-4.71 58.81 58.81 0 0 0 17-11.76c0.49-0.5 1-1 1.39-1.43l1.23-1.34c0.76-0.84 1.4-1.6 1.91-2.22l1.58-2-1.7 1c-0.55 0.35-1.21 0.75-2.02 1.2z"/>
<path d="m748.18 332.31c6.9069-0.0258 15.283 0.51037 22.063 1.8273 5 1 10.049 2.1692 15.049 3.4492 5.2 1.36 10.39 2.7797 15.59 4.1797 5.2 1.4 10.341 2.6212 15.551 3.7012 4.9334 0.96937 9.918 1.6567 14.93 2.0586 8.7599 0.55547 17.542-0.64785 25.83-3.5391 6.4496-2.5973 12.385-6.3221 17.529-11 0.51-0.47 1.0009-0.91937 1.4609-1.3594s0.8793-0.88125 1.2793-1.2812c0.8-0.8 1.47-1.5289 2-2.1289l1.6602-1.9199s-0.61 0.35-1.75 1c-0.57 0.31-1.2696 0.66986-2.0996 1.0898l-1.3398 0.63868c-0.48 0.23333-0.99125 0.46474-1.5312 0.6914-5.7541 2.4682-11.844 4.0658-18.068 4.7402-8.78 0.91-17.571-2e-3 -26.291-1.6016-5-1-10-2.1885-15-3.4785-5.21-1.37-10.4-2.8305-15.6-4.2305-5.2-1.4-10.341-2.6598-15.551-3.7598-4.164-0.84186-8.3799-1.403-12.619-1.6797-8.89-0.42-19.72 0.0689-28.15 3.1289l-3.5773 1.5703s1.5358 2.6552 8.6356 7.9031z"/>
<path d="m724.92 307.04c14.2-2.88 28.789-2.7512 43.299-1.7012 8.63 0.78 17.24 1.8802 25.84 3.1602 9 1.37 17.921 2.8495 26.881 4.2695s17.8 2.59 26.73 3.5c8.4404 0.75558 16.917 1.0327 25.389 0.83008 15-0.87 29.111-3.8495 42.711-10.439 5.9746-3.2012 11.724-6.9762 16.968-11.271 3.4037-5.0414 6.3593-10.17 8.918-15.383-9.0598 4.9571-18.884 8.5892-28.975 10.785-14.57 3.06-29.461 2.9984-44.371 1.8984-8.63-0.79-17.24-1.9094-25.85-3.1894-9-1.4-17.931-2.9291-26.891-4.3691-8.96-1.44-17.81-2.6499-26.75-3.5898-7.128-0.6846-14.294-0.88558-21.449-0.60157-15 0.84-33.06 3.5599-46.66 10.17-2 1.07-7.003 3.5982-8.723 4.5382l7.8063 14.825z"/>
</g>
</g>
</svg>
