<?xml version="1.0" encoding="UTF-8" standalone="no"?>
<!-- Created with Inkscape (http://www.inkscape.org/) -->

<svg
   version="1.1"
   id="svg471"
   width="1020.1253"
   height="1018.6583"
   viewBox="0 0 1020.1253 1018.6583"
   xmlns="http://www.w3.org/2000/svg"
   xmlns:svg="http://www.w3.org/2000/svg">
  <defs
     id="defs475" />
  <g
     id="g477"
     transform="translate(-81.510704,-66.22776)">
    <path
       style="fill:#000000;stroke-width:1.15544"
       d="M 563.812,1084.5772 C 488.26798,1079.1685 426.69876,1062.837 363.7766,1031.5168 231.2855,965.56811 134.60058,846.28034 96.958679,702.32262 86.286608,661.50833 81.564695,622.99099 81.511149,576.31486 81.426483,502.49858 93.375607,444.07632 123.34054,371.80064 c 4.92109,-11.86973 25.02112,-50.07306 33.55089,-63.76884 33.97413,-54.55042 79.80358,-104.31682 131.0687,-142.32811 76.17051,-56.47776 168.14676,-90.945331 262.44316,-98.349058 19.35625,-1.519765 63.03442,-1.498404 82.79344,0.0405 85.60108,6.666869 169.45398,35.746138 241.43068,83.725508 46.83896,31.2227 92.95118,74.94145 126.73429,120.15607 33.1816,44.40951 60.3933,97.44398 76.7745,149.63046 11.0215,35.11145 17.0828,64.23095 21.4055,102.83483 2.7839,24.86175 2.7942,78.06198 0.02,102.83483 -7.1578,63.91233 -23.3616,120.10998 -50.1116,173.79518 -25.2843,50.7438 -52.59262,89.29742 -91.63031,129.36296 -43.22805,44.36606 -87.8339,76.85153 -142.04524,103.44803 -53.69989,26.3457 -109.54787,42.3667 -171.65875,49.2434 -15.51743,1.7181 -67.06475,3.0987 -80.30363,2.1508 z m 67.01592,-47.8277 c 25.60899,-1.9063 59.30982,-7.2268 77.19805,-12.1877 8.48483,-2.353 34.76855,-10.7409 37.76901,-12.0531 1.27102,-0.5558 8.55034,-3.4341 16.1763,-6.3961 28.12876,-10.92537 63.10728,-29.39751 91.42669,-48.28232 30.69195,-20.46685 76.26456,-62.89791 101.37525,-94.38671 38.71454,-48.5481 69.74168,-109.98617 86.65238,-171.58396 13.9625,-50.8584 17.5229,-127.25402 8.7777,-188.33795 -4.1345,-28.87837 -7.0952,-41.39065 -16.5469,-69.92822 -19.0932,-57.64897 -47.45645,-108.84154 -86.0904,-155.38405 -12.68852,-15.28601 -44.74344,-46.8837 -61.96189,-61.07807 -23.26774,-19.18135 -39.32739,-30.14205 -67.59369,-46.13261 -28.65434,-16.21018 -69.30856,-33.10884 -104.56794,-43.46567 -16.62822,-4.88422 -38.27622,-8.86279 -67.59368,-12.42266 -23.95798,-2.90908 -83.78824,-2.92495 -108.03437,-0.0286 -45.73884,5.46371 -87.50789,16.17399 -120.16655,30.81271 -1.27098,0.5697 -6.21052,2.69492 -10.97674,4.72269 -10.48905,4.46256 -32.46421,15.41823 -42.75157,21.31372 -13.37298,7.66381 -14.35569,8.24015 -20.79805,12.19764 -41.91166,25.74601 -88.9936,69.17198 -122.67135,113.14579 -32.802,42.83033 -62.12496,102.5496 -77.89688,158.64514 -9.3878,33.38931 -14.34502,74.79484 -14.34502,119.81772 0,67.06761 9.73047,117.45986 33.80126,175.0503 5.30654,12.69614 20.19894,43.11762 26.58475,54.30604 21.24742,37.22713 40.99732,62.74176 74.75709,96.57762 32.47432,32.54762 58.40613,52.89878 92.87284,72.88649 18.32147,10.62486 47.71786,25.03002 64.3123,31.51516 6.03721,2.3592 12.27662,4.8262 13.86537,5.4822 11.37314,4.6954 46.3439,14.9934 59.50554,17.523 14.63719,2.8131 41.60695,6.4796 55.46148,7.5398 18.40108,1.4082 63.33412,1.4808 81.45902,0.1317 z M 517.59775,904.8273 c 0.003,-0.90133 4.35557,-2.90679 10.68789,-4.92342 5.87633,-1.87148 11.46416,-3.8037 12.41741,-4.29384 0.95324,-0.49006 8.23256,-3.51234 16.17627,-6.71604 15.11588,-6.09628 23.41589,-10.47898 21.25685,-11.22437 -0.70091,-0.24198 -9.28011,2.14228 -19.06489,5.29836 -23.53452,7.59107 -59.48084,15.89157 -79.02923,18.24886 -11.82738,1.42631 -45.60598,1.01849 -58.09379,-0.70133 -12.516,-1.72373 -14.63022,-3.37951 -6.52352,-5.10904 30.08189,-6.41787 83.35658,-20.68095 93.50351,-25.03342 1.27098,-0.54519 4.39069,-1.61694 6.93268,-2.38169 5.8446,-1.75833 11.37481,-4.53488 10.59184,-5.31785 -0.3298,-0.3298 -5.18767,0.71143 -10.79526,2.31386 -13.71518,3.91925 -28.12833,7.33571 -40.44799,9.58768 -5.60355,1.0243 -12.52807,2.30681 -15.3878,2.85002 -31.81354,6.04307 -92.11362,6.82365 -117.61192,1.5225 -5.32962,-1.10804 -3.9914,-3.20256 2.73995,-4.28845 3.1252,-0.50414 11.66162,-2.00882 18.96982,-3.34372 7.30821,-1.33491 14.58753,-2.56349 16.17627,-2.73016 3.68631,-0.38676 25.19549,-4.76115 33.50798,-6.81464 3.49523,-0.86345 9.21469,-2.18918 12.70992,-2.94609 19.19008,-4.15572 46.21791,-13.57985 46.21791,-16.11541 0,-1.63078 -0.53943,-1.56338 -9.19215,1.14862 -12.7662,4.00127 -43.32758,10.59945 -63.60105,13.73143 -35.74969,5.52286 -77.94646,7.84649 -101.67939,5.59915 -9.37612,-0.88784 -27.09385,-4.46058 -34.96428,-7.05044 -2.69425,-0.88659 -7.36843,-2.31877 -10.38703,-3.18263 -3.0186,-0.86385 -5.48837,-2.22716 -5.48837,-3.02955 0,-1.77382 2.73571,-2.41346 13.28764,-3.10682 9.73935,-0.63997 31.22204,-2.8464 35.24115,-3.61952 1.58874,-0.30561 5.2284,-0.82391 8.08813,-1.15179 2.85974,-0.32788 9.87908,-1.40747 15.59854,-2.39908 5.71947,-0.99161 13.581,-2.27108 17.47006,-2.84327 8.94435,-1.31596 59.44877,-11.40544 60.57461,-12.10124 0.46221,-0.28566 11.94855,-3.39345 25.52519,-6.90619 30.52487,-7.89783 40.37658,-10.88013 42.553,-12.88157 1.99819,-1.83758 0.74623,-1.96722 -15.55728,-1.61088 -5.71946,0.125 -14.03869,-0.3501 -18.48717,-1.05577 -8.54628,-1.35573 -23.68667,-6.67088 -23.68667,-8.31539 0,-0.53509 4.02963,-0.98112 8.95472,-0.99119 13.1305,-0.0268 35.18702,-1.97832 47.08449,-4.16592 15.05878,-2.76886 36.42336,-12.01657 40.64235,-17.59215 3.71704,-4.91221 6.75585,-7.52713 14.30478,-12.30933 7.06021,-4.47262 23.07478,-19.81105 25.50243,-24.42574 1.03352,-1.9646 5.31249,-6.11169 9.50883,-9.21574 4.19633,-3.10406 7.64032,-6.49194 7.65331,-7.52864 0.0291,-2.3234 -6.78056,-7.64547 -14.17758,-11.08041 -11.49442,-5.33765 -25.27222,-17.99248 -32.81819,-30.14335 -4.22361,-6.80105 -3.22603,-8.73692 2.32173,-4.50543 2.0522,1.56528 6.83928,3.5156 10.63796,4.33401 3.79868,0.81843 7.459,1.90473 8.13404,2.41402 1.97748,1.49189 24.41019,2.68269 23.03704,1.2229 -0.6355,-0.67561 -9.73361,-5.47381 -20.21803,-10.66268 -24.03251,-11.89399 -35.97191,-19.79385 -49.10883,-32.49348 -8.63217,-8.34482 -10.04473,-10.18985 -8.31374,-10.85915 1.85765,-0.71827 3.81002,-0.0561 12.64174,4.28799 5.41135,2.66168 30.25376,10.31361 35.16398,10.83118 l 5.57048,0.58717 -7.54055,-3.7755 c -4.14731,-2.07652 -10.30676,-4.96506 -13.68765,-6.41897 -11.35023,-4.88101 -38.18138,-21.8187 -51.33861,-32.40851 -13.63289,-10.97265 -36.8976,-42.94072 -31.25002,-42.94072 0.41313,0 4.70273,2.5157 9.53244,5.59043 21.92951,13.96103 63.31279,34.60713 74.35292,37.09465 2.38311,0.53696 4.33293,0.74917 4.33293,0.47159 0,-0.27758 -4.80955,-2.87256 -10.68789,-5.76664 -39.49016,-19.4421 -77.67493,-53.80028 -97.79159,-87.99172 -1.97941,-3.36431 -3.59893,-6.35403 -3.59893,-6.64381 0,-1.16324 4.41789,-0.43211 5.54358,0.91743 1.40881,1.68895 22.1183,16.01322 39.59847,27.38934 21.92776,14.27061 43.52808,24.78336 49.48988,24.08641 2.41453,-0.28226 0.49363,-1.7433 -10.27027,-7.81158 -11.44361,-6.45147 -30.09609,-18.42835 -40.55964,-26.0436 -4.5542,-3.31449 -20.88364,-17.30801 -29.66316,-25.41984 -16.8397,-15.55904 -33.26673,-40.44426 -38.89894,-58.92782 -1.16187,-3.81298 -2.36121,-7.58263 -2.6652,-8.377 -1.31167,-3.4276 4.02634,-0.9861 10.10487,4.62179 15.38763,14.19618 40.08898,32.93528 64.33071,48.80301 13.85114,9.06642 16.64442,10.67231 26.68214,15.33985 8.78594,4.08546 13.83639,4.56927 7.72055,0.7396 -1.93183,-1.20968 -7.65129,-5.28366 -12.70993,-9.05325 -5.05864,-3.76962 -13.09068,-9.74906 -17.84899,-13.28766 -45.4223,-33.7791 -78.15481,-71.40382 -89.02502,-102.33078 -1.11783,-3.18033 -2.40141,-6.69233 -2.85241,-7.80446 -1.78389,-4.39889 3.72168,-1.80586 12.26638,5.77725 41.17997,36.54574 75.97851,64.40588 90.00934,72.06258 1.88385,1.02802 4.13791,2.46064 5.00901,3.18359 1.55282,1.28872 14.03795,5.92402 15.95629,5.92402 2.04456,0 0.8369,-3.54272 -2.50523,-7.34919 -2.90389,-3.30737 -34.61977,-28.43752 -43.22181,-34.24692 -7.35993,-4.97055 -29.61086,-24.31156 -43.2019,-37.55205 -29.39075,-28.63274 -50.26926,-57.19885 -63.92225,-87.45885 -9.53618,-21.13564 -16.964,-46.87543 -14.04721,-48.67812 0.57383,-0.35464 4.60847,3.3536 8.96587,8.24053 28.82759,32.33099 50.13726,54.07776 74.55941,76.08877 16.71687,15.06644 33.424,29.1947 42.17384,35.66397 2.54198,1.87944 7.69085,5.93424 11.44192,9.01066 3.75107,3.07641 8.69061,6.81197 10.97676,8.30125 2.28613,1.48929 7.01635,4.81466 10.51158,7.38973 9.09236,6.69869 22.6633,16.38034 27.68466,19.75052 16.51606,11.0851 45.59893,34.63057 62.67346,50.7404 8.79371,8.29686 10.09008,8.41443 3.38067,0.30659 -13.16265,-15.90608 -26.86669,-39.78973 -32.2733,-56.2465 -3.62936,-11.04709 -5.46503,-21.37578 -3.79901,-21.37578 1.55307,0 5.11598,3.48391 10.04399,9.82131 2.47083,3.17747 8.91484,10.92527 14.32002,17.2173 5.40517,6.29206 12.13287,14.3513 14.95044,17.90944 13.42102,16.94866 44.5481,44.99759 47.10175,42.44391 1.85917,-1.85916 -2.18206,-7.49378 -15.49013,-21.59785 -8.12955,-8.61573 -16.30848,-17.4549 -18.17546,-19.64261 -1.86695,-2.18771 -6.86394,-7.8773 -11.10441,-12.64352 -12.11925,-13.62186 -28.37688,-36.91704 -37.30709,-53.45645 -4.43475,-8.2135 -12.37102,-26.35199 -15.10136,-34.51444 -5.37953,-16.08235 -10.11293,-47.53958 -7.52914,-50.03721 1.42034,-1.37298 2.05717,-0.63922 8.96649,10.33115 2.40148,3.81297 5.8958,9.21222 7.76515,11.99831 1.86935,2.78611 4.95867,7.54767 6.86516,10.58125 6.36587,10.12931 30.13462,41.95982 40.85832,54.71641 16.59898,19.74565 23.90165,27.58972 47.44149,50.95871 52.24862,51.86935 78.61241,87.28996 92.02091,123.63288 1.64123,4.44848 3.43394,9.12804 3.9837,10.39903 0.54985,1.27099 1.32388,3.61077 1.72017,5.19951 1.53368,6.14917 5.52994,16.17627 6.44696,16.17627 0.52983,0 2.78868,-1.23873 5.01962,-2.7527 2.23102,-1.51399 6.02372,-3.10245 8.42832,-3.52992 2.4046,-0.42746 8.53154,-2.02498 13.61553,-3.55004 20.25099,-6.07478 50.41631,-9.30993 77.99271,-8.36449 14.08124,0.48276 19.98295,2.39461 28.43259,9.2107 1.8382,1.48282 5.47474,4.12854 8.08117,5.87938 2.60643,1.75084 8.56092,7.6719 13.23225,13.15794 4.67133,5.48603 10.76802,12.07127 13.54811,14.63388 7.35619,6.7807 8.73016,10.07186 8.06809,19.32573 -0.62299,8.70643 -3.47155,14.46983 -9.15019,18.5134 l -3.48567,2.48198 -3.07673,-2.49824 c -5.905,-4.79468 -14.91368,-8.20158 -21.687,-8.20158 -10.16288,0 -32.70329,4.3702 -39.49975,7.65833 -5.40628,2.61554 -7.00964,4.31837 -13.83478,14.69289 -4.24592,6.45396 -8.80061,14.19833 -10.12146,17.20971 -1.32094,3.01138 -3.72086,6.91101 -5.33314,8.66586 -4.8781,5.30917 -13.60401,17.23579 -18.46833,25.24259 -6.35407,10.45911 -21.74341,41.45718 -22.52707,45.37549 -0.57836,2.89204 0.33346,4.07259 8.90304,11.52635 10.90416,9.48444 15.48398,11.85687 36.06626,18.68317 17.57098,5.82756 18.68003,5.76575 34.24469,-1.90838 11.62906,-5.73374 14.31036,-8.09634 25.03505,-22.05957 3.53489,-4.60225 6.86388,-8.63771 7.39779,-8.96767 0.5339,-0.32997 3.65924,-1.10982 6.94533,-1.73302 4.83824,-0.91754 7.52734,-2.4727 14.13739,-8.17599 11.37897,-9.81787 16.44598,-12.82631 20.87943,-12.39666 4.13596,0.40082 5.13695,3.51188 1.36106,4.23016 -1.27093,0.24178 -3.7102,1.43243 -5.4204,2.6459 -2.77732,1.97059 -3.086,2.86865 -2.88859,8.40576 0.30573,8.58068 -1.09381,9.94154 -16.24424,15.79491 -2.19532,0.84816 -2.59976,1.86694 -2.59976,6.54931 0,6.68255 -1.78196,9.47421 -8.59687,13.46802 -4.12443,2.41706 -5.881,4.52087 -8.69125,10.4093 -2.05883,4.31378 -3.82381,10.26595 -4.24818,14.32612 -0.63269,6.05278 -0.37185,7.51523 2.02816,11.37111 1.51479,2.43374 3.63862,6.3772 4.71969,8.76324 2.45061,5.40889 5.31433,5.63014 11.31882,0.87455 5.08096,-4.0242 5.25827,-4.57276 6.91033,-21.37842 2.39073,-24.31925 4.57288,-30.80532 11.85844,-35.24739 2.07114,-1.26281 5.47752,-2.29796 7.56963,-2.30034 l 3.80387,-0.004 -4.67046,4.44288 c -5.68731,5.41019 -6.42521,10.56292 -1.81368,12.66407 4.89145,2.22869 4.88841,7.05771 -0.0147,23.03081 -1.39875,4.55689 2.28545,4.321 8.92323,-0.57133 3.37908,-2.49053 8.41914,-5.96033 11.2002,-7.71071 2.78092,-1.75036 9.81552,-8.04336 15.6324,-13.98443 10.16219,-10.37927 15.51717,-14.01326 18.79563,-12.7552 2.3559,0.90404 1.82391,2.91722 -1.0659,4.03349 -1.42986,0.55234 -3.81393,2.30998 -5.29795,3.90588 -2.61597,2.81324 -2.63702,2.99494 -0.69033,5.96596 1.92495,2.93787 1.91273,3.19278 -0.29663,6.1757 -1.26747,1.71124 -4.07659,4.24302 -6.24236,5.62618 -3.94002,2.51623 -18.21703,14.57049 -26.63917,22.49171 -5.51859,5.19038 -5.06875,7.92371 1.30395,7.92371 2.39411,0 6.62805,-0.80636 9.40875,-1.79192 5.96774,-2.11505 13.05053,-3.19357 21.78779,-3.31766 4.96008,-0.0704 6.41222,0.31533 6.69914,1.77976 0.28606,1.45942 -0.85116,1.98672 -5.18235,2.40289 -3.70015,0.35552 -9.97423,2.76757 -18.83144,7.23957 -7.30531,3.68853 -16.14221,7.58179 -19.63741,8.65168 l -6.35502,1.94528 -0.009,7.4326 c -0.01,9.03778 -1.12613,11.11967 -7.64528,14.24881 -4.52514,2.17201 -5.09553,2.89513 -5.42249,6.87365 -0.24628,2.99745 0.28476,5.16465 1.62979,6.65091 2.45772,2.71571 1.52493,3.86152 -2.35148,2.88861 -5.184,-1.30112 -6.7507,-5.23102 -5.29207,-13.27481 1.4355,-7.91639 0.50947,-17.93472 -1.83794,-19.88287 -0.97031,-0.80533 -4.85738,-1.13676 -10.17969,-0.86798 -7.15323,0.36122 -9.1112,0.90558 -11.57178,3.21719 -1.62892,1.53032 -2.96173,3.96216 -2.96173,5.40409 0,3.9502 -4.09973,6.24642 -9.76581,5.46979 -5.99374,-0.82153 -7.28539,0.59254 -8.74758,9.57653 -1.94072,11.92385 -7.56009,16.52797 -17.72081,14.51894 -6.30666,-1.24655 -9.98428,-0.26987 -9.98428,2.65169 0,2.10206 -3.59217,4.04406 -7.48045,4.04406 -3.22474,0 -11.51944,3.81403 -14.26435,6.55887 -1.45543,1.45544 -2.05684,1.30409 -4.69421,-1.18133 -1.72251,-1.62323 -5.01493,-3.1271 -7.64666,-3.49272 -2.54205,-0.35315 -4.68875,-0.66173 -4.77056,-0.68573 -0.0815,-0.024 -0.79908,-1.61402 -1.59417,-3.53338 -2.23874,-5.40496 -7.82579,-9.55957 -11.78946,-8.76683 -2.87759,0.57552 -4.59828,-0.51457 -13.71511,-8.6888 l -10.42476,-9.34686 -4.69118,1.19074 c -4.54151,1.15277 -4.82523,1.05186 -8.89463,-3.1634 -2.31188,-2.39478 -6.97169,-6.28074 -10.35518,-8.63546 l -6.15172,-4.28131 -5.0944,2.98549 c -2.80184,1.64201 -6.53301,4.90578 -8.29132,7.25282 -5.57769,7.44507 -11.58347,12.72012 -16.12603,14.16401 -2.4215,0.76969 -7.00244,3.88408 -10.17995,6.92088 -5.14666,4.91853 -15.65349,11.54728 -18.30333,11.54728 -1.1465,0 -7.86747,2.80746 -12.89376,5.38592 -4.65252,2.38673 -19.01332,7.12144 -42.75161,14.09509 -22.4926,6.60776 -31.12877,8.72275 -43.32925,10.61148 -4.76622,0.73789 -11.00984,1.71436 -13.8747,2.17001 -2.86486,0.45557 -10.79412,0.95663 -17.62057,1.11339 -9.63785,0.22133 -12.41092,-0.0546 -12.40809,-1.23575 z m 339.4761,-98.79331 c 0.49768,-5.1228 -1.69591,-12.50516 -4.72844,-15.91266 -2.29766,-2.58182 -3.74495,-2.9529 -14.1146,-3.61895 -18.57517,-1.19308 -26.89916,2.40269 -19.54826,8.44439 7.72526,6.3494 30.34228,15.6675 36.30222,14.95637 1.04303,-0.12445 1.87486,-1.66515 2.08908,-3.86915 z"
       id="path639" />
  </g>
</svg>
