<?xml version="1.0" encoding="UTF-8"?>
<svg version="1.1" viewBox="0 0 720 1150" xmlns="http://www.w3.org/2000/svg">
<rect transform="rotate(90)" y="-720" width="1150" height="720" fill="#008000"/>
<g transform="rotate(90 360.54 359.54)" stroke="#fff">
<g fill="#59b200" stroke-width="0">
<rect x="616" y="-1.0058" width="78" height="722.01"/>
<rect x="456" y="-1.0058" width="78" height="722.01"/>
</g>
<circle cx="575" cy="360" r="91.5" fill-opacity="0" stroke-width="2"/>
<g fill="#59b200" stroke-width="0">
<rect x="301" y="-1.0058" width="78" height="722.01"/>
<rect x="-1" y="-.83781" width="78" height="722.01"/>
<rect x="1075" y="-1.0058" width="78" height="722.01"/>
</g>
<circle cx="575" cy="360" r="2" fill="#fff"/>
<rect x="145" y="-1.0058" width="78" height="722.01" fill="#59b200" stroke-width="0"/>
<circle cx="160" cy="360" r="2" fill="#fff"/>
<rect x="927" y="-1.0058" width="78" height="722.01" fill="#59b200" stroke-width="0"/>
<circle cx="990" cy="360" r="2" fill="#fff"/>
<g stroke-width="2">
<g fill-opacity="0">
<path d="m50 324.4h-10v72.2h10z"/>
<path d="m1100 324.4h10v72.2h-10z"/>
<path d="m50 269.4h55v182.2h-55z"/>
<path d="m1100 269.4h-55v182.2h55z"/>
<path d="m50 160.4h165v402.2h-165z" fill="#fff"/>
<path d="m1100 159.4h-165v402.2h165z"/>
</g>
<g fill="none">
<path d="m215 286.88a91.5 91.5 0 0 1 0 146.25z"/>
<path d="m935 286.88a91.5 91.5 0 0 0 0 146.25z"/>
</g>
<g fill-opacity="0">
<path d="m50 30a10 10 0 0 0 10-10h-10z"/>
<path d="m60 700a10 10 0 0 0-10-10v10z"/>
</g>
</g>
<rect x="766" y="-1.0058" width="78" height="722.01" fill="#59b200" stroke-width="0"/>
<g stroke-width="2">
<path d="m575 20h-525v680h1050v-680h-525v680z" fill="none"/>
<g fill-opacity="0">
<path d="m1100 690a10 10 0 0 0-10 10h10z"/>
<path d="m1090 20a10 10 0 0 0 10 10v-10z"/>
</g>
<g fill="none">
<line x1="50" x2="1097" y1="20" y2="20"/>
<line x1="49" x2="50" y1="20" y2="391"/>
</g>
</g>
</g>
</svg>
