<?xml version="1.0" encoding="UTF-8"?>
<svg width="90.369mm" height="105.71mm" version="1.1" viewBox="0 0 90.369 105.71" xml:space="preserve" xmlns="http://www.w3.org/2000/svg"><defs><style>.cls-1,.cls-3{fill:#10416a;}.cls-1{stroke:#fff;stroke-miterlimit:10;stroke-width:11px;}.cls-2{fill:#fff;}</style></defs><g transform="translate(-26.218 -58.73)"><g transform="matrix(4.7165 0 0 4.7165 -708.63 -183.66)"><path d="m160.52 51.64s0.37795-0.06704 1.4168-0.24911c1.1273 0.36071 2.2166 0.11876 3.4165 0.28194 1.7423 0.07964 4.5674 0.08748 4.5674 0.08748s0.17273-0.1358 0.22523-0.14865c0.0877-0.02141 0.37093 0.41741 0.40608 0.46679 0.16041 0.22534 0.57508 0.31196 0.79218 0.54312 0.97284 1.0359 2.2055 2.2786 3.355 3.5094-0.66457 0.92449-2.2232 1.9833-3.0834 3.3451-0.036 0.05698-1.8989-2.4237-1.9011-2.3564-0.0534 1.6313 0.35418 4.3894 0.50578 6.0517 0.0672 0.73672-0.0517 1.418-0.0517 1.418l-9.6488 8.82e-4 -0.11467-6.3123-1.2622 1.1857-3.0877-3.3369z" fill="#92cfe5" stroke-width=".099056"/><path d="m167.08 64.419c0.17976-0.07193 0.39454-0.06309 0.47729 0.01966 0.0828 0.08275-0.0643 0.1416-0.32684 0.13079-0.29009-0.01195-0.3491-0.07096-0.15045-0.15045zm-4.0292-0.52359c-0.0665-0.10761 0.0867-0.19566 0.34055-0.19566 0.25381 0 0.40706 0.08805 0.34055 0.19566-0.0665 0.10761-0.21976 0.19566-0.34055 0.19566-0.1208 0-0.27404-0.08805-0.34055-0.19566zm3.4533-0.05336c-0.0846-0.13696-0.0352-0.24902 0.10982-0.24902 0.14504 0 0.26371 0.11206 0.26371 0.24902s-0.0494 0.24902-0.10981 0.24902c-0.0604 0-0.17907-0.11206-0.26372-0.24902zm-5.4759-0.25308c0.086-0.1392 0.26073-0.18861 0.38823-0.10981 0.3454 0.21347 0.28099 0.3629-0.15642 0.3629-0.21352 0-0.31784-0.11389-0.23181-0.25308zm0.87698-0.29252c-4e-3 -0.36856 0.10414-0.73936 0.2411-0.82401s0.24902-0.03523 0.24902 0.10981 0.084 0.25045 0.18676 0.23423c0.50538-0.0798 0.82193 0.05664 0.67668 0.29165-0.0891 0.14419-0.29183 0.2184-0.45048 0.16491s-0.42496 0.08067-0.59181 0.29813c-0.2615 0.34083-0.30444 0.30293-0.31127-0.27472zm3.4784 0.04756c0.20545-0.13277 0.48559-0.24139 0.62255-0.24139s0.0809 0.10863-0.12451 0.24139c-0.20544 0.13277-0.48558 0.24139-0.62254 0.24139-0.13697 0-0.0809-0.10863 0.1245-0.24139zm2.9882-2.09c0-0.05383 0.17391-0.1646 0.38646-0.24617 0.22161-0.08504 0.32157-0.04329 0.23433 0.09787-0.14624 0.23662-0.62079 0.34998-0.62079 0.1483zm-4.8214-0.52468c-0.0788-0.20544-0.0348-0.37353 0.0979-0.37353 0.13267 0 0.24121 0.16809 0.24121 0.37353s-0.044 0.37353-0.0979 0.37353c-0.0538 0-0.16237-0.16809-0.2412-0.37353zm0.83711-0.21853c0-0.05171 0.17065-0.23565 0.37923-0.40875 0.31708-0.26316 0.35352-0.24775 0.22237 0.09402-0.13394 0.34906-0.6016 0.59372-0.6016 0.31473zm-5.8193-2.1258c0.17206-0.06936 0.23813-0.25662 0.14684-0.41612-0.0913-0.1595-0.0743-0.20693 0.0378-0.1054 0.11208 0.10153 0.38218 0.04743 0.60022-0.12022 0.24291-0.18677 0.21272-0.08949-0.0779 0.25118-0.26091 0.3058-0.59708 0.54716-0.74706 0.53634-0.15596-0.01125-0.13877-0.07364 0.0402-0.14578zm12.395-0.92402-0.47438-0.56029 0.62255 0.49539c0.3424 0.27246 0.66924 0.52459 0.7263 0.56029 0.0571 0.0357-0.01 0.06491-0.14817 0.06491-0.13856 0-0.7263-0.15652-0.7263-0.56029zm-12.823 0.16907s-0.92982-0.01102-0.7064-0.1491c0.19107-0.11808 0.24453-0.08773 0.14087 0.07999-0.16408 0.26549 0.24598 0.66692 0.68891 0.67442 0.1239 0.0021 0.25406 0.19992 0.28924 0.4396 0.083 0.56567-0.41262-1.0449-0.41262-1.0449zm13.854 1.2489c-0.0788-0.1275 2.5e-4 -0.58721 0.17332-0.69554 0.40201-0.25111 0.58952-0.56464 0.36704-0.34216-0.0924 0.09244 0.10009 0.26585-0.0597 0.27207-0.15979 0.0062-0.12807 0.15481-0.28534 0.32803-0.57694 0.63546-0.19532-0.46843-0.19532 0.43759zm-8.3839-0.39074c-0.0171-0.06848-0.0451-0.24066-0.0623-0.38261-0.0171-0.14196-0.19922-0.36436-0.40466-0.49423-0.31842-0.20128-0.30923-0.23669 0.0623-0.23994 0.23968-0.0021 0.43579 0.12132 0.43579 0.27425s0.21688 0.22135 0.48195 0.15203c0.28563-0.07469 0.5386 0.02155 0.62099 0.23626 0.10515 0.27403 0.0105 0.3215-0.38863 0.19482-0.35485-0.11262-0.47186-0.07718-0.35727 0.10823 0.0937 0.15163 0.0517 0.2757-0.0933 0.2757-0.14504 0-0.27772-0.05603-0.29484-0.12451zm1.5252-0.12451c0-0.13696 0.10544-0.24902 0.23432-0.24902s0.30358 0.11206 0.38822 0.24902c0.0847 0.13696-0.0208 0.24902-0.23432 0.24902s-0.38822-0.11206-0.38822-0.24902zm8.6619-1.2121c0 0.1248-0.85156-0.02884-0.453-0.4749s0.72465-0.71457 0.72465-0.59667-0.22147 0.41479-0.49217 0.65976c-0.27069 0.24497 0.0922 0.0056 0.15971 0.11477 0.0675 0.10919-0.43329 0.1983-0.56307 0.27848-0.12973 0.08018 0.62388-0.10626 0.62388 0.01856zm-13.965-0.11599c-0.0789-0.20559 0.0176-0.43559 0.21437-0.5111 0.40127-0.15398 0.45437 0.05623 0.13962 0.55275-0.17128 0.2702-0.2373 0.26244-0.35399-0.04165zm10.434-0.45652c0.0705-0.11413 0.2337-0.20752 0.36257-0.20752 0.12888 0 0.23433 0.09338 0.23433 0.20752 0 0.11413-0.16316 0.20752-0.36258 0.20752s-0.30486-0.09338-0.23432-0.20752zm-12.808-0.0043c-0.1074-0.17378-0.69673 0.06647-0.53813 0.16454 0.14643 0.09049 0.32298 0.02377 0.39235-0.14829 0.0903-0.2239 0.13171-0.22852 0.14578-0.01625 0.0284 0.42853 0.65894 0.37467 0.30859 0.17546zm0.20646-1.5105c0.46461-0.47936 0.90078-0.87157 0.96926-0.87157 0.0685 0-0.25563 0.39221-0.72024 0.87157-0.46462 0.47936 0.15754 1.4007 0.0891 1.4007-0.0685 0-0.8027-0.92137-0.33808-1.4007zm15.54-0.21789-0.47438-0.56029 0.5603 0.47438c0.52654 0.4458 0.67366 0.64621 0.47438 0.64621-0.0473 0-0.29939-0.25213-0.5603-0.56029zm-5.377-1.1351c0.17976-0.07194 0.39454-0.06309 0.47729 0.01966 0.0827 0.08275-0.0643 0.1416-0.32684 0.13079-0.29009-0.01195-0.3491-0.07096-0.15045-0.15045zm-7.6418-0.60871c0.0516-0.0026 0.19611-0.24781 0.43579-0.43578 0.39496-0.30975 0.40376-0.30094 0.094 0.09402-0.32531 0.4148-0.73451 0.352-0.52981 0.34177z" fill="#d0d0d0" stroke-width=".24902"/><path d="m162.27 64.388c-0.6848-0.04246-1.3468-0.17778-1.4711-0.30072-0.28902-0.28584 0.31387-1.0437 0.66006-0.82978 0.13928 0.08608 0.20158 0.0018 0.13854-0.18728-0.17805-0.53415 0.5076-1.112 0.87528-0.7377 0.22846 0.23259 0.21075 0.28249-0.0783 0.22056-0.26072-0.05587-0.3971 0.16438-0.45156 0.72927-0.058 0.60123 0.0221 0.80931 0.31127 0.80931 0.21412 0 0.38931-0.11867 0.38931-0.26372 0-0.14504-0.11078-0.19525-0.24617-0.11158-0.14096 0.08712-0.18302-0.01241-0.0984-0.23289 0.0813-0.21177 0.25297-0.32 0.38158-0.24052 0.12861 0.07949 0.42503-0.0033 0.65871-0.1839 0.32352-0.25008 0.31172-0.19579-0.0495 0.22758-0.47438 0.556-0.43875 0.60761 0.45238 0.65513 0.26183 0.01396 0.5153 0.14145 0.56326 0.2833 0.0923 0.27297-0.0617 0.2853-2.0354 0.16293zm-0.62255-0.65517c0-0.26283-0.4779-0.37326-0.62004-0.14327-0.086 0.1392 0.0183 0.25308 0.23181 0.25308 0.21353 0 0.38823-0.04942 0.38823-0.10981zm2.9882 0.46879c0-0.22308 0.22285-0.46388 0.49523-0.53511 0.27239-0.07123 0.43273-0.23066 0.35633-0.35428s-0.24323-0.1603-0.37073-0.0815-0.23181 0.01526-0.23181-0.1412 0.14007-0.23519 0.31127-0.17496 0.54701 0.02255 0.83513-0.08374c0.44934-0.16576 0.51446-0.1077 0.45783 0.40821-0.0363 0.3308 0.0361 0.66458 0.16095 0.74174 0.12483 0.07715 0.22697 0.02161 0.22697-0.12344 0-0.14504 0.1747-0.26372 0.38823-0.26372 0.21352 0 0.32488 0.10249 0.24747 0.22775-0.0774 0.12526 0.1681 0.34053 0.54559 0.47838 0.91892 0.33555 0.1816 0.35446-1.0023 0.0257-0.64451-0.17898-0.91948-0.38644-0.87157-0.65758 0.0385-0.21786-0.0736-0.44626-0.24906-0.50754-0.17548-0.06129-0.30229-0.01689-0.28179 0.09868 0.0925 0.52127-0.0581 0.83461-0.51974 1.0817-0.40329 0.21583-0.49804 0.18938-0.49804-0.13906zm4.6847 0.21797c0.17976-0.07193 0.39454-0.06309 0.47729 0.01966 0.0827 0.08275-0.0643 0.1416-0.32684 0.13079-0.2901-0.01195-0.3491-0.07096-0.15045-0.15045zm-6.1788-0.67482c0-0.05383 0.17391-0.1646 0.38646-0.24617 0.22161-0.08504 0.32157-0.04329 0.23432 0.09787-0.14623 0.23662-0.62078 0.34998-0.62078 0.1483zm4.1032-0.64011c0.0816-0.13197-0.084-0.47223-0.36792-0.75614-0.28391-0.28391-0.62417-0.44948-0.75614-0.36792-0.34509 0.21328-0.2963-0.47219 0.0589-0.82738 0.41641-0.41641 1.0299-0.378 0.86413 0.0541-0.0745 0.19411 0.0256 0.41471 0.22238 0.49022 0.19679 0.07552 0.3578 0.0063 0.3578-0.1537 0-0.21766 0.0753-0.21569 0.29883 0.0078 0.23241 0.23242 0.23241 0.36523 0 0.59765-0.16436 0.16435-0.29883 0.50053-0.29883 0.74706s-0.11867 0.44824-0.26371 0.44824c-0.14505 0-0.19699-0.10797-0.11543-0.23994zm2.0441-0.28102c-0.13072-0.4999-0.1168-0.50337 0.34449-0.08591 0.57192 0.51758 0.59196 0.60688 0.13623 0.60688-0.18947 0-0.40579-0.23443-0.48072-0.52096zm-5.4346-1.388c-0.22331-0.26907-0.12558-0.3019 0.51641-0.1735 0.66894 0.13379 0.81344 0.07579 0.93098-0.37368 0.0765-0.29263 0.23812-0.53205 0.35911-0.53205 0.34705 0 0.25822 0.37822-0.21581 0.91882-0.50134 0.57175-1.1916 0.64135-1.5907 0.16042zm4.0095-0.7167c-0.17098-0.20602-0.23771-0.44773-0.1483-0.53714 0.0894-0.08941 0.3125 0.04247 0.49575 0.29308 0.32988 0.45115 0.90677 0.34702 0.90677-0.16366 0-0.15776-0.17618-0.12665-0.43578 0.07695-0.38558 0.30239-0.40017 0.29609-0.12668-0.05468 0.17002-0.21804 0.22946-0.4761 0.1321-0.57346-0.0974-0.09736 0.0157-0.10307 0.25119-0.0127 0.2355 0.09037 0.42819 0.40803 0.42819 0.70591 0 0.65952-1.0259 0.84086-1.5032 0.2657zm-4.909-0.23699c-0.42044-0.47754-0.39201-0.62195 0.12451-0.63241 0.33964-0.0069 0.30474-0.08146-0.15819-0.33806l-0.59397-0.32924 0.60655-0.11595c0.46928-0.08971 0.61493-0.0048 0.64355 0.37518 0.0544 0.72157 0.46804 1.0526 0.88403 0.70732 0.18961-0.15736 0.41847-0.21238 0.50859-0.12226 0.0901 0.09012 0.16386 0.01444 0.16386-0.16817s0.0651-0.26692 0.14468-0.18734c0.28654 0.28654-0.40569 1.1516-0.8922 1.1149-0.27367-0.02061-0.49758-0.12569-0.49758-0.23351s-0.11868-0.19603-0.26372-0.19603c-0.0391 0-0.0712 0.0081-0.0957 0.02272-0.0663 0.0395-0.076 0.12626-0.0141 0.2263 0.23267 0.37645-0.20507 0.28-0.5603-0.12347zm1.9299-0.12555c0-0.13696-0.0494-0.24902-0.10982-0.24902-0.0604 0-0.17907 0.11206-0.26371 0.24902-0.0846 0.13696-0.0352 0.24902 0.10981 0.24902 0.14504 0 0.26372-0.11206 0.26372-0.24902zm1.6809-0.16492c0.1712-0.06908 0.45135-0.06908 0.62255 0s0.0311 0.1256-0.31128 0.1256c-0.3424 0-0.48247-0.05652-0.31127-0.1256zm-7.8234-1.7229c0.19942 0 0.0952-0.30373 0.21158-0.23181 0.11637 0.07192 0.14711 0.23508 0.0683 0.36258-0.20136 0.32581-0.69978-0.13076-0.27989-0.13076zm6.5783 0.72009c-0.23968-0.06264-0.43578-0.21772-0.43578-0.34464s-0.16148-0.23076-0.35884-0.23076-0.43551-0.12406-0.52922-0.2757c-0.11459-0.1854 2e-3 -0.22085 0.35727-0.10823 0.37006 0.11746 0.50312 0.06964 0.44552-0.16009-0.0452-0.18016-0.0349-0.24282 0.0228-0.13924 0.0577 0.10357 0.197 0.13143 0.30949 0.06191s0.14196 0.11287 0.0655 0.40532c-0.10088 0.38577-0.0432 0.49694 0.20999 0.405 0.19197-0.0697 0.32519-0.24028 0.29605-0.37907-0.0336-0.15989 0.16476-0.14958 0.54135 0.02814 0.6324 0.29845 0.34262 0.72435-0.31987 0.47012-0.24399-0.09363-0.31189-0.04216-0.19465 0.14755 0.099 0.16024 0.14543 0.27834 0.10311 0.26245-0.0423-0.01589-0.27306-0.08013-0.51274-0.14277zm6.2878-0.07736s-0.0875-0.56104 0.0906-0.56333c0.16312-0.0021 0.14011 0.20768 0.14011 0.20768-0.15392-0.4331-0.12913 0.27355-0.25042 0.15267zm-3.4863-0.2412c0-0.13266 0.17278-0.1749 0.38396-0.09387 0.29969 0.115 0.35856 0.0073 0.26826-0.49065-0.0866-0.47765-0.0266-0.60382 0.2386-0.50204 0.38928 0.14938 0.43084 0.34046 0.20313 0.93387-0.1624 0.42319-1.094 0.55321-1.094 0.15269zm-4.7314-0.8775c0-0.38605 1.1611-1.1037 1.5738-0.97269 0.26442 0.08392 0.41893 0.05254 0.34335-0.06975-0.0756-0.12229 0.0785-0.22234 0.34235-0.22234 0.27611 0 0.47975 0.17114 0.47975 0.40317 0 0.61751-0.24053 0.72839-0.91424 0.42143-0.41227-0.18784-0.67133-0.1969-0.78447-0.02743-0.17684 0.26487-1.0405 0.653-1.0405 0.4676zm4.3163-0.26186c0-0.19942 0.0934-0.36258 0.20751-0.36258 0.11414 0 0.20752 0.10544 0.20752 0.23432s-0.0934 0.29204-0.20752 0.36258c-0.11413 0.07054-0.20751-0.03491-0.20751-0.23432zm5.05-0.43927c0.0719-0.11637 0.17503-0.28866 0.36258-0.06831 0.17632 0.20716-0.0551-0.20235-0.13076 0.27989-0.0309 0.19701-0.30373-0.09521-0.23182-0.21158zm-10.853 0.37249c0.0162-0.35376 1.2682-1.0722 1.6801-0.96414 0.31416 0.08245 0.27901 0.12025-0.13152 0.14142-0.36126 0.01863-0.56029 0.18698-0.56029 0.47393 0 0.26653-0.19978 0.4601-0.49804 0.48256-0.27392 0.02063-0.49452-0.03956-0.49021-0.13377zm-2.3454-0.34136c0.0719-0.11637 0.23508-0.14711 0.36258-0.06831 0.32581 0.20136 0.28913 0.27989-0.13076 0.27989-0.19942 0-0.30373-0.09521-0.23182-0.21158zm9.4346 0.04556c-0.0846-0.13696-0.0352-0.24902 0.10981-0.24902 0.14505 0 0.26372 0.11206 0.26372 0.24902s-0.0494 0.24902-0.10981 0.24902c-0.0604 0-0.17907-0.11206-0.26372-0.24902zm-8.705-0.23181c-0.0788-0.1275-0.0294-0.3022 0.10981-0.38823 0.1392-0.08603 0.25308 0.01829 0.25308 0.23181 0 0.43741-0.14942 0.50181-0.36289 0.15641zm1.0107-0.16574c-0.0817-0.21286-0.0375-0.3095 0.10212-0.22323 0.1354 0.08368 0.24617 0.04281 0.24617-0.09083 0-0.13363-0.14007-0.29948-0.31127-0.36857-0.19559-0.07892-0.20692-0.13291-0.0305-0.14526 0.50756-0.03554 0.82076 0.57445 0.46369 0.90307-0.25663 0.23619-0.35688 0.22016-0.47021-0.07519zm12.395-0.10048c0.2479-0.27392 0.50675-0.49804 0.57523-0.49804 0.0685 0-0.0783 0.22412-0.32621 0.49804-0.24789 0.27392-0.50675 0.49804-0.57523 0.49804-0.0685 0 0.0783-0.22412 0.32621-0.49804zm-17.154-0.25671s0.051-0.31992 0.16727-0.39184c0.11637-0.07192 0.14437 0.11655 0.14437 0.31596 0 0.41989-0.0331 0.35439-0.0331 0.35439zm13.966 0.31897c0.12396-0.10272 0.309-0.29882 0.41122-0.43578 0.10606-0.14211 0.18749-0.06193 0.18966 0.18676 2e-3 0.24224-0.18051 0.43578-0.41122 0.43578-0.22826 0-0.31361-0.08404-0.18966-0.18676zm-3.3477-0.53531c-0.1879-0.11902-0.29959-0.34253-0.2482-0.49668 0.0523-0.15685 0.23107-0.05987 0.40599 0.22022 0.34885 0.55861 0.33259 0.5871-0.15779 0.27646zm5.2598-0.18991c-0.35621-0.14373-0.42316-0.58214-0.0889-0.58214 0.12231 0 0.28688 0.16809 0.36572 0.37353 0.0788 0.20544 0.11884 0.36468 0.0889 0.35387-0.0299-0.01081-0.19451-0.07618-0.36571-0.14526zm-6.3344-0.25421c0.17976-0.07193 0.39454-0.06309 0.47729 0.01966 0.0827 0.08275-0.0643 0.1416-0.32684 0.13079-0.29009-0.01195-0.3491-0.07096-0.15045-0.15045zm1.5408-0.07891c-0.22444-0.14504-0.25515-0.24292-0.0769-0.24521 0.16312-0.0021 0.36583 0.10825 0.45048 0.24521 0.19108 0.30916 0.10487 0.30916-0.37353 0zm-3.7353-0.24902c0-0.13696 0.11206-0.24902 0.24902-0.24902s0.24902 0.11206 0.24902 0.24902-0.11206 0.24902-0.24902 0.24902-0.24902-0.11206-0.24902-0.24902zm-6.3356-0.47482c-0.0767-0.12419 0.0847-0.16715 0.35883-0.09547 0.58146 0.15205 0.65496 0.32126 0.13955 0.32126-0.19736 0-0.42163-0.10161-0.49838-0.2258zm11.269 0.05569c0.17976-0.07193 0.39454-0.06309 0.47729 0.01966 0.0827 0.08275-0.0643 0.1416-0.32684 0.13079-0.2901-0.01195-0.3491-0.07096-0.15045-0.15045zm3.6904-0.02555c-0.0665-0.10761 0.0867-0.19566 0.34055-0.19566 0.25381 0 0.40706 0.08805 0.34055 0.19566-0.0665 0.10761-0.21975 0.19566-0.34055 0.19566-0.12079 0-0.27404-0.08805-0.34055-0.19566zm-8.2506-0.67591c0-0.54607 0.34254-0.92631 0.39258-0.43578 0.0105 0.10272 0.0566 0.38287 0.10247 0.62255 0.0459 0.23968-0.0467 0.43578-0.20581 0.43578-0.15909 0-0.28924-0.28015-0.28924-0.62255zm5.129 0.02908c-0.22044-0.26562-0.19892-0.37781 0.094-0.49022 0.26122-0.10024 0.37989 0.0074 0.37989 0.34445 0 0.5805-0.0901 0.60822-0.47391 0.14578zm-3.0124-0.90065c0-0.13696 0.11868-0.24902 0.26372-0.24902s0.19446 0.11206 0.10981 0.24902c-0.0846 0.13696-0.20332 0.24902-0.26371 0.24902-0.0604 0-0.10982-0.11206-0.10982-0.24902z" fill="#2692b9" stroke-width=".24902"/><path d="m160.85 64.419c0.17976-0.07193 0.39454-0.06309 0.47729 0.01966 0.0827 0.08275-0.0643 0.1416-0.32684 0.13079-0.29009-0.01195-0.3491-0.07096-0.15045-0.15045zm1.3588-0.0025c0.24229-0.06314 0.57847-0.05898 0.74706 0.0092 0.1686 0.06822-0.0296 0.11988-0.44052 0.1148-0.41088-0.0051-0.54882-0.06088-0.30654-0.12402zm4.0443-0.08051c0.086-0.1392 0.26073-0.18861 0.38823-0.10981 0.3454 0.21348 0.281 0.3629-0.15641 0.3629-0.21353 0-0.31784-0.11389-0.23182-0.25308zm2.5604 0.0046c-0.64481-0.08009-1.2356-0.20882-1.3128-0.28607-0.15171-0.15172 2.4171 0.0398 2.589 0.19302 0.22827 0.20354-0.1592 0.2318-1.2761 0.09306zm-6.9208-0.34742c0-0.05383 0.16809-0.16237 0.37353-0.2412 0.20544-0.07884 0.37353-0.0348 0.37353 0.09787 0 0.13266-0.16809 0.2412-0.37353 0.2412s-0.37353-0.04404-0.37353-0.09787zm3.9843-0.27563c0-0.20544 0.10855-0.37353 0.24121-0.37353s0.1767 0.16809 0.0979 0.37353-0.18738 0.37353-0.24121 0.37353c-0.0538 0-0.0979-0.16809-0.0979-0.37353zm-1.9922-0.14129c0-0.1577 0.21523-0.19749 0.52922-0.09783 0.40258 0.12777 0.48241 0.0871 0.33361-0.16998-0.10759-0.18587-0.10271-0.25366 0.0109-0.15064 0.11356 0.10302 0.43969-0.0082 0.72473-0.24724 0.37748-0.31652 0.35427-0.24902-0.0855 0.24848-0.59817 0.67677-1.513 0.92904-1.513 0.41722zm-3.2373-0.23224c0-0.13696 0.11867-0.24902 0.26372-0.24902 0.14504 0 0.19446 0.11206 0.10981 0.24902-0.0846 0.13696-0.20332 0.24902-0.26371 0.24902-0.0604 0-0.10982-0.11206-0.10982-0.24902zm2.6147 0c0.0846-0.13696 0.20332-0.24902 0.26371-0.24902 0.0604 0 0.10982 0.11206 0.10982 0.24902s-0.11867 0.24902-0.26372 0.24902c-0.14504 0-0.19446-0.11206-0.10981-0.24902zm4.3827-0.26147c-0.0137-0.34925 0.10965-0.76947 0.27401-0.93382 0.23241-0.23242 0.23241-0.36523 0-0.59765-0.22351-0.2235-0.29883-0.22547-0.29883-0.0078 0 0.10796-0.0733 0.17457-0.18134 0.18332-0.0521 0.0042-0.11241-5e-3 -0.17646-0.02961-0.1968-0.07552-0.29687-0.29612-0.22238-0.49022 0.18383-0.47905-0.51929-0.45492-0.92312 0.03168-0.43986 0.53-2.4359 0.14679-2.0964-0.40248 0.0873-0.14124 0.33462-0.1303 0.63016 0.02787 0.26757 0.1432 0.47161 0.17151 0.45344 0.06293-0.0932-0.55696 0.0748-0.81998 0.52397-0.81998 0.27393 0 0.49804-0.12405 0.49804-0.27566s-0.15881-0.21472-0.35292-0.14023c-0.1941 0.07449-0.41251-0.01988-0.48535-0.2097-0.0904-0.23564 2e-3 -0.3032 0.29066-0.21297 0.33806 0.10559 0.32299 0.04625-0.0749-0.2952l-0.49803-0.42736 0.49803 0.18767c0.27393 0.10322 0.62743 0.193 0.78558 0.19951 0.15814 0.0065 0.23454 0.14992 0.16979 0.31868-0.0648 0.16876 0.0145 0.38856 0.17609 0.48844 0.40916 0.25288 0.77039-0.41252 0.44004-0.81057-0.2076-0.25014-0.13799-0.3079 0.31017-0.25737 0.39852 0.04493 0.68561-0.12805 0.92508-0.5574 0.3132-0.56153 0.3356-0.5688 0.22854-0.07419-0.0653 0.3016-0.0465 0.59139 0.0416 0.64399 0.0882 0.0526 0.0203 0.06149-0.15094 0.01975-0.17121-0.04173-0.31128 0.0953-0.31128 0.30453 0 0.20922 0.11206 0.31115 0.24902 0.22651 0.13696-0.08465 0.24902 0.02741 0.24902 0.24902s0.0966 0.34321 0.21471 0.27023c0.11809-0.07298 0.20213 0.11651 0.18676 0.42109-0.0296 0.58649-0.66158 0.76954-0.83725 0.24251-0.0571-0.1712 0.0242-0.31127 0.18071-0.31127 0.15645 0 0.20451 0.12937 0.10678 0.2875-0.11264 0.18226-0.068 0.21972 0.12191 0.10234 0.37564-0.23216-0.098-0.88788-0.64136-0.88788-0.20699 0-0.28286-0.12114-0.18005-0.2875 0.11225-0.18162 0.0681-0.21975-0.11994-0.10355-0.1637 0.10117-0.23425 0.38362-0.15679 0.62768 0.11599 0.36545 0.0189 0.42745-0.55017 0.35143-0.38005-0.05077-0.52491-0.01775-0.32191 0.07337 0.20299 0.09112 0.52019 0.31678 0.70488 0.50147 0.18468 0.18469 0.42656 0.2797 0.5375 0.21114s0.38697 0.1581 0.61341 0.50369 0.53081 0.55474 0.67638 0.46477c0.17663-0.10917 0.15469-0.23154-0.066-0.36792-0.18185-0.11239-0.23451-0.29449-0.117-0.40466 0.1175-0.11017 0.26434-0.05823 0.32629 0.11542 0.062 0.17365 0.27074 0.4738 0.46395 0.66702 0.47192 0.47191 0.48751 1.308 0.0171 0.91756-0.1838-0.15254-0.42588-0.19428-0.53796-0.09275s-0.13043 0.05627-0.0408-0.10058c0.0897-0.15685-0.0136-0.35295-0.22947-0.43578-0.57714-0.22147-0.62988-0.19409-0.54941 0.28518 0.0956 0.56916 0.43291 0.80081 1.173 0.8055 0.33099 0.0021 0.53231 0.07329 0.44739 0.15822-0.322 0.322-1.9205-0.17216-1.9456-0.60147-0.0157-0.26869-0.098-0.196-0.2242 0.19805l-0.19937 0.62255zm-2.017-1.9944c0-0.14504 0.10432-0.19925 0.23182-0.12045 0.12749 0.0788 0.3022 0.02938 0.38822-0.10981 0.086-0.1392 0.10294-0.25308 0.0376-0.25308-0.0654 0-0.28137-0.06237-0.48001-0.13859-0.22566-0.08659-0.41142 0.05355-0.4951 0.37353-0.0736 0.28167-0.0323 0.51212 0.0918 0.51212 0.12414 0 0.2257-0.11867 0.2257-0.26372zm0.79272 1.4549c-0.34883-0.34882-0.38474-0.6931-0.0723-0.6931 0.22822 0 0.60381 0.75093 0.45169 0.90306-0.0466 0.04659-0.21732-0.04789-0.37939-0.20996zm-4.777-0.44408c0.58988-0.58988 0.63129-0.59823 1.1881-0.23964 0.40432 0.26038 0.40443 0.26917 2e-3 0.14451-0.23572-0.073-0.59191 0.03059-0.79153 0.23022-0.19963 0.19962-0.48302 0.36295-0.62976 0.36295-0.14675 0-0.0427-0.22412 0.23123-0.49804zm2.7392-0.26372c0-0.14504 0.11206-0.19446 0.24902-0.10981s0.24902 0.20332 0.24902 0.26372-0.11206 0.10981-0.24902 0.10981-0.24902-0.11867-0.24902-0.26372zm-0.70971-0.29658c-0.1712-0.1712-0.41773-0.31127-0.54784-0.31127-0.13012 0-0.227-0.09953-0.2153-0.22118s-0.12513-0.31166-0.30407-0.42224c-0.17893-0.11059-0.26249-0.2639-0.1857-0.3407 0.14657-0.14657 0.85427 0.43156 1.4333 1.1709 0.39394 0.50302 0.2781 0.58299-0.18038 0.12451zm-2.2785-0.53762c0-0.04741 0.16809-0.2257 0.37353-0.3962 0.2153-0.17868 0.37353-0.20289 0.37353-0.05713 0 0.13908-0.16809 0.31737-0.37353 0.3962-0.20544 0.07884-0.37353 0.10455-0.37353 0.05713zm2.3419-0.93272c-0.11009-0.17812-0.0683-0.2199 0.10981-0.10981 0.15812 0.09773 0.2875 0.05901 0.2875-0.08603s-0.11206-0.26372-0.24902-0.26372-0.25259-0.1961-0.25694-0.43578c-0.0114-0.6281-0.5528-1.2436-0.98816-1.1235-0.33203 0.09162-0.33203 0.07372 0-0.16109 0.52131-0.36868 0.74706-0.33551 0.74706 0.10976 0 0.20986 0.25213 0.4829 0.56029 0.60676s0.42022 0.23231 0.24902 0.241c-0.1712 0.0087-0.31127 0.13446-0.31127 0.2795s0.10031 0.20172 0.22292 0.12594 0.29106 0.03978 0.37434 0.2568c0.26918 0.70148-0.36413 1.1773-0.74555 0.56017zm-2.1878-0.38842c-0.30763-0.30762-0.14285-0.56919 0.35858-0.56919 0.282 0 0.44826-0.10432 0.36946-0.23181-0.268-0.43363 0.40884-0.57602 0.81369-0.17118 0.37131 0.37131 0.36104 0.40299-0.13062 0.40299-0.29349 0-0.69637 0.16275-0.89529 0.36167s-0.43104 0.2923-0.51582 0.20752zm1.0909-0.06333c0-0.13266 0.16809-0.1767 0.37353-0.09787 0.20544 0.07884 0.37353 0.18738 0.37353 0.2412 0 0.05383-0.16809 0.09787-0.37353 0.09787s-0.37353-0.10854-0.37353-0.2412zm6.4942-0.65112c0.012-0.29009 0.071-0.3491 0.15045-0.15045 0.0719 0.17976 0.0631 0.39454-0.0197 0.47729s-0.1416-0.06433-0.13079-0.32684zm-3.3192-0.69942c-0.50576-0.38392-0.57085-0.67697-0.13042-0.58718 0.16795 0.03424 0.34068-0.16586 0.38385-0.44468 0.0565-0.36477-0.0589-0.50693-0.41159-0.50693-0.26954 0-0.43566 0.08805-0.36916 0.19566s2e-3 0.19566-0.14279 0.19566c-0.14504 0-0.26371-0.12943-0.26371-0.28761 0-0.17504-0.17334-0.13074-0.44289 0.11319-0.44578 0.40343-1.6255 0.49924-1.3866 0.1126 0.0705-0.1141 0.35693-0.13486 0.63648-0.04614 0.32747 0.10393 0.45021 0.06738 0.34506-0.10276-0.26645-0.43111 1.7805-0.88445 2.1817-0.4832 0.17866 0.17866 0.28308 0.4501 0.23204 0.6032-0.051 0.1531 0.0701 0.34088 0.26922 0.41728 0.29263 0.11229 0.32187-9.96e-4 0.1526-0.59123-0.19902-0.69395-0.1825-0.71581 0.33332-0.44099 0.50685 0.27003 0.51804 0.25891 0.1692-0.16833-0.34552-0.42318-0.33045-0.44638 0.201-0.30938 0.42008 0.10829 0.51047 0.06969 0.33625-0.14358-0.15718-0.19241-0.11965-0.40097 0.11027-0.61278 0.32138-0.29605 0.45159-0.2069 0.37805 0.25884-0.0162 0.10272 0.13199 0.18676 0.32934 0.18676 0.19736 0 0.42981 0.11484 0.51655 0.25519 0.0867 0.14036 0.0653 0.23914-0.0476 0.21953-0.49875-0.08664-0.823 0.04573-0.76556 0.31255 0.0342 0.15908-0.2179 0.37202-0.5603 0.47322s-0.45754 0.19516-0.25586 0.20881c0.25996 0.0176 0.2115 0.13352-0.16654 0.3983-0.29326 0.20541-0.7104 0.30548-0.92697 0.22238-0.25283-0.09702-0.39377-0.0153-0.39377 0.22832 0 0.20868 0.14008 0.43594 0.31128 0.50502s0.19921 0.13088 0.0623 0.13734c-0.13696 0.0065-0.44512-0.13712-0.6848-0.31907zm5.4179-0.14854c-0.0872-0.14116 0.0127-0.18291 0.23432-0.09787 0.43141 0.16555 0.51034 0.34403 0.15214 0.34403-0.12888 0-0.30278-0.11078-0.38646-0.24617zm-6.5484-0.38585c-0.26529-0.30079-0.25447-0.36406 0.0623-0.36406 0.21084 0 0.38335 0.16809 0.38335 0.37353 0 0.45413-0.0374 0.45333-0.44561-0.0095zm-2.9058-0.62452c0.23635-0.26117 0.54586-0.40308 0.68779-0.31536 0.16475 0.10182 0.1924-0.01284 0.0765-0.31715-0.14231-0.37357-0.11606-0.41161 0.12145-0.17591 0.37453 0.37169-0.0268 0.94628-0.80264 1.1492-0.48963 0.12804-0.49338 0.11264-0.0831-0.34075zm8.1332 0.04791c-0.25269-0.16029-0.22557-0.27973 0.12451-0.54827 0.24616-0.18884 0.3645-0.24528 0.26296-0.12544-0.10153 0.11984-0.0598 0.36828 0.0927 0.55208 0.30679 0.36966 0.0238 0.44134-0.48022 0.12163zm-8.865-0.24398c-0.0705-0.11413 0.03-0.20752 0.22337-0.20752 0.19339 0 0.29391 0.09338 0.22337 0.20752-0.0705 0.11413-0.17105 0.20752-0.22337 0.20752-0.0523 0-0.15283-0.09338-0.22337-0.20752zm7.8185-0.0415c0-0.13696 0.11867-0.24902 0.26372-0.24902 0.14504 0 0.19446 0.11206 0.10981 0.24902-0.0846 0.13696-0.20332 0.24902-0.26372 0.24902s-0.10981-0.11206-0.10981-0.24902zm-11.268-0.42068c-0.23968-0.06264-0.43578-0.22434-0.43578-0.35934s0.11951-0.17159 0.26559-0.08131c0.2928 0.18096 1.0053-0.63868 0.81822-0.94132-0.0644-0.10423 8.4e-4 -0.18951 0.14503-0.18951 0.34965 0 0.17495 1.0677-0.19487 1.191-0.15951 0.05317-0.22668 0.19916-0.14926 0.32442 0.0774 0.12526 0.10613 0.21475 0.0638 0.19886-0.0423-0.01589-0.27306-0.08013-0.51274-0.14277zm15.104-0.0121c0.0825-0.08251-0.0274-0.42082-0.24429-0.75179-0.53939-0.82322-0.3608-0.83416 0.41897-0.02568 0.61253 0.6351 0.62163 0.68001 0.16213 0.80018-0.26776 0.07002-0.41932 0.0598-0.33681-0.02271zm-11.851-0.48439c0.17976-0.07193 0.39454-0.06309 0.47729 0.01966 0.0827 0.08275-0.0643 0.1416-0.32684 0.13079-0.29009-0.01195-0.3491-0.07096-0.15045-0.15045zm2.5991-0.16854c-0.30816-0.15262-0.56029-0.36959-0.56029-0.48216s-0.0934-0.14695-0.20752-0.07641c-0.11413 0.07054-0.20751-0.02422-0.20751-0.21058s0.14941-0.2815 0.33202-0.21142c0.18262 0.07008 0.33203 0.22748 0.33203 0.34979 0 0.43031 0.38749 0.21506 0.83246-0.46243 0.40005-0.6091 0.43653-0.62286 0.33001-0.12451-0.0796 0.37222-2e-3 0.5603 0.23045 0.5603 0.19262 0 0.35022-0.13074 0.35022-0.29052 0-0.15979 0.072-0.21852 0.15999-0.13053 0.26248 0.26248-0.41613 0.90073-0.80075 0.75314-0.19543-0.07499-0.35532-0.02164-0.35532 0.11856s0.14007 0.31143 0.31127 0.38051 0.19922 0.12069 0.0623 0.11469c-0.13696-6e-3 -0.50116-0.13579-0.80932-0.28841zm2.1789-0.1208c0-0.11573 0.21786-0.40758 0.48413-0.64855s0.5184-0.67169 0.5603-0.95715c0.0583-0.39747 0.28028-0.53383 0.94773-0.58224 0.76334-0.05537 0.79426-0.03716 0.24902 0.14668-0.59937 0.20208-0.59296 0.21082 0.17207 0.23472 0.43704 0.01365 0.86665 0.14137 0.95469 0.28382 0.14433 0.23353-0.50036 0.17538-1.5403-0.13893-0.15895-0.04804-0.58076 0.35352-0.93735 0.89237-0.63882 0.96531-0.89031 1.1826-0.89031 0.7693zm3.4863-0.77018c0-0.12845 0.22412-0.21666 0.49804-0.19603s0.49804 0.12573 0.49804 0.23354c0 0.10782-0.22412 0.19603-0.49804 0.19603s-0.49804-0.1051-0.49804-0.23354zm-4.3578-0.76254c0.0846-0.13696-0.0274-0.24902-0.24902-0.24902-0.22161 0-0.33031-0.1175-0.24155-0.26111 0.11181-0.18091 0.25722-0.18157 0.47339-0.0022 0.17161 0.14242 0.41007 0.17588 0.52992 0.07435 0.11984-0.10153 0.0678 0.0115-0.11566 0.25119-0.3549 0.46367-0.65564 0.60512-0.39708 0.18676zm-4.3382-1.8884c0.012-0.29009 0.071-0.3491 0.15045-0.15045 0.0719 0.17976 0.0631 0.39454-0.0197 0.47729-0.0827 0.08275-0.1416-0.06433-0.13079-0.32684zm0.85191 0.14526c-0.406-0.17447-0.42022-0.21725-0.077-0.23152 0.2316-0.0096 0.49034 0.09456 0.57499 0.23152 0.17697 0.28634 0.16832 0.28634-0.49804 0z" fill="#73a7d0" stroke-width=".24902"/><path d="m165.81 64.31c0.16892-0.17018 0.36985-0.2467 0.44652-0.17003 0.0767 0.07667-0.0615 0.21591-0.30712 0.30943-0.3549 0.13514-0.38351 0.10654-0.1394-0.1394zm1.992-0.39834c-0.0572-0.10632-0.0208-0.47345 0.081-0.81585 0.11986-0.40341 0.1937-0.46915 0.20979-0.18676 0.0137 0.23968 0.19685 0.43578 0.40711 0.43578 0.31036 0 0.32999-0.09772 0.10434-0.51937-0.36868-0.68887-0.0447-0.98184 0.4053-0.36647 0.50838 0.69525 0.44903 0.8416-0.45614 1.1249l-0.80932 0.25328 0.93383-0.13293c0.5136-0.07311 0.93382-0.0387 0.93382 0.07648 0 0.26765-1.671 0.38859-1.8097 0.13097zm-3.5209-0.529c-0.083-0.13438-0.0102-0.30107 0.16183-0.37044 0.19693-0.07939 0.15906-0.1334-0.10221-0.14578-0.22826-0.01081-0.47155 0.12041-0.54063 0.29162-0.075 0.18595-0.13352 0.13582-0.14526-0.12451-0.0108-0.23968-0.18775-0.43578-0.39319-0.43578s-0.37353-0.1002-0.37353-0.22268 0.26939-0.20652 0.59865-0.18676c0.32926 0.01975 0.54677 0.11996 0.48334 0.22268-0.10836 0.17552 0.50849 0.29846 1.0146 0.2022 0.12591-0.02395 0.0736 0.15889-0.1163 0.4063-0.18987 0.24741-0.3657 0.4853-0.39074 0.52866-0.025 0.04335-0.11348-0.03112-0.19653-0.1655zm-3.2606-0.53588c0.0847-0.13696 0.20332-0.24902 0.26372-0.24902s0.10981 0.11206 0.10981 0.24902-0.11867 0.24902-0.26372 0.24902c-0.14504 0-0.19445-0.11206-0.10981-0.24902zm4.8889-0.09548c-0.48862-0.27091-0.52124-0.35305-0.19056-0.47994 0.25121-0.0964 0.49581 0.0279 0.66053 0.33568 0.30526 0.57038 0.30096 0.5717-0.46997 0.14427zm-4.6399-0.65158c0.0847-0.13696 0.26596-0.24902 0.40292-0.24902s0.17977 0.11206 0.0951 0.24902c-0.0847 0.13696-0.26596 0.24902-0.40292 0.24902s-0.17977-0.11206-0.0951-0.24902zm1.0911-0.04447c-0.0162-0.18098-0.0134-0.42155 6e-3 -0.53459 0.0197-0.11304-0.16718-0.14113-0.41519-0.06241-0.32967 0.10463-0.45094 0.01294-0.45094-0.34097 0-0.39354 0.0675-0.42845 0.36067-0.18661 0.28083 0.23164 0.38385 0.22858 0.46543-0.0138 0.18631-0.55357 0.51939-0.32958 0.37029 0.24902-0.12392 0.48091-0.09 0.51576 0.2393 0.24595 0.31459-0.25774 0.44567-0.23814 0.72798 0.10888 0.30183 0.371 0.29143 0.40341-0.0843 0.26267-0.24488-0.09174-0.59177 0.0026-0.80931 0.22018-0.29379 0.29378-0.38748 0.30558-0.41023 0.05167zm2.2707 0.19947c0-0.05171 0.1961-0.24781 0.43578-0.43578 0.39496-0.30975 0.40377-0.30094 0.094 0.09402-0.32531 0.4148-0.5298 0.54672-0.5298 0.34176zm1.2451-1.4001c0-0.13696 0.11868-0.24902 0.26372-0.24902s0.19446 0.11206 0.10981 0.24902c-0.0846 0.13696-0.20331 0.24902-0.26371 0.24902s-0.10982-0.11206-0.10982-0.24902zm1.4941 0c-0.19751-0.12207-0.27644-0.30461-0.1754-0.40564s0.31444-0.05297 0.47423 0.10682c0.15978 0.15979 0.23871 0.34233 0.1754 0.40564-0.0633 0.06332-0.27672 0.01525-0.47423-0.10682zm-5.2917-0.95458c0.49652-0.52016 0.69037-0.49063 0.47437 0.07227-0.0811 0.21135-0.31906 0.38427-0.5288 0.38427-0.32265 0-0.31428-0.07027 0.0544-0.45654zm1.6809-0.0415c-0.0846-0.13696-0.0352-0.24902 0.10981-0.24902 0.14504 0 0.26372 0.11206 0.26372 0.24902s-0.0494 0.24902-0.10982 0.24902c-0.0604 0-0.17907-0.11206-0.26371-0.24902zm1.7431 0c0.0847-0.13696 0.25935-0.24902 0.38823-0.24902s0.23432 0.11206 0.23432 0.24902-0.1747 0.24902-0.38822 0.24902c-0.21353 0-0.31897-0.11206-0.23433-0.24902zm1.8391-0.30238c-0.13089-0.24457-0.37411-0.44296-0.54049-0.44086-0.19308 0.0024-0.16999 0.08762 0.0638 0.23548 0.20148 0.12742 0.28365 0.31433 0.18262 0.41537-0.10104 0.10104-0.31631 0.0511-0.47838-0.11097-0.2259-0.2259-0.22631-0.36304-2e-3 -0.58761 0.22457-0.22457 0.40059-0.19551 0.75421 0.12451 0.25371 0.2296 0.58592 0.41745 0.73826 0.41745 0.15233 0 0.33138 0.08805 0.39789 0.19566 0.0665 0.10761-0.10387 0.19566-0.37863 0.19566-0.27475 0-0.60664-0.2001-0.73754-0.44468zm-2.8369-0.01963c-0.10134-0.24559-0.11439-0.5164-0.029-0.6018 0.0854-0.0854 0.15528-0.01792 0.15528 0.14995s0.10431 0.24075 0.23181 0.16195 0.3129-0.01207 0.412 0.14829c0.1074 0.17378 0.0726 0.22509-0.086 0.12702-0.14642-0.0905-0.31878-0.02376-0.38301 0.14829-0.0789 0.21146-0.1765 0.16813-0.30106-0.1337zm4.6086 0.0998c0-0.16787-0.11206-0.23596-0.24902-0.15132-0.13696 0.08465-0.24902 0.03523-0.24902-0.10981s0.10545-0.26372 0.23432-0.26372c0.30745 0 0.60448 0.48931 0.41317 0.68062-0.0822 0.08219-0.14945 0.0121-0.14945-0.15577zm-7.4706-0.7535c0-0.12576-0.0684-0.40681-0.15192-0.62456-0.22058-0.57482 1.5077-0.41964 1.8756 0.1684 0.15618 0.24962 0.17166 0.43578 0.0362 0.43578-0.13003 0-0.30568-0.11206-0.39033-0.24902-0.0847-0.13696-0.38513-0.24902-0.66774-0.24902-0.4285 0-0.46235 0.06203-0.20383 0.37353 0.25389 0.30592 0.23688 0.37353-0.094 0.37353-0.22221 0-0.40402-0.10289-0.40402-0.22865zm5.7274-0.26157c0-0.13266-0.1961-0.17362-0.43578-0.09101-0.35615 0.12275-0.34477 0.0757 0.0623-0.25745l0.49804-0.40764-0.49804 0.1648c-0.52775 0.17463-0.51423 0.14842 0.21099-0.40914 0.41301-0.31753 0.45181-0.30397 0.37975 0.13272-0.0442 0.26751 8e-3 0.62645 0.11498 0.79765 0.11038 0.17598 0.0806 0.31128-0.0685 0.31128-0.14505 0-0.26372-0.10854-0.26372-0.2412zm0.81632-0.28718c-0.15365-0.15365-0.22046-0.43285-0.14847-0.62045 0.0724-0.18863-0.0755-0.42038-0.33074-0.51848-0.40807-0.15682-0.38941-0.19573 0.16093-0.33542 0.3424-0.08691 0.59837-0.27668 0.56881-0.42171-0.032-0.15702 0.16946-0.20254 0.49804-0.11254 0.47101 0.12903 0.48583 0.16483 0.10119 0.24459-0.4182 0.08672-0.42226 0.13668-0.0565 0.69487 0.21675 0.33079 0.29143 0.60144 0.16596 0.60144-0.12546 0-0.29262-0.16809-0.37145-0.37353-0.0788-0.20544-0.24019-0.37353-0.35856-0.37353-0.34684 0-0.17213 1.0149 0.21711 1.2612 0.19581 0.12391 0.23835 0.22701 0.0945 0.22911-0.14381 0.0021-0.38719-0.1219-0.54084-0.27555zm-9.6179-0.76936c-0.0981-0.37505 0.0269-0.70986 0.39174-1.0498 0.47451-0.44207 0.51612-0.44795 0.36398-0.0515-0.0945 0.24619-0.17177 0.5011-0.17177 0.56647 0 0.06536-0.11655 0.04681-0.259-0.04123-0.16794-0.1038-0.20222 0.06613-0.0975 0.48334 0.0888 0.35388 0.10638 0.64341 0.039 0.64341-0.0674 0-0.18726-0.24781-0.26646-0.55068zm12.928 0.15936c-0.538-0.538-0.49041-0.67087 0.10673-0.29795 0.27392 0.17107 0.49803 0.39613 0.49803 0.50015 0 0.28712-0.17343 0.22913-0.60476-0.2022zm-14.025-0.95544c-0.59688-0.62969-0.73014-1.1434-0.29658-1.1434 0.14505 0 0.20172-0.10032 0.12594-0.22293-0.15027-0.24315 0.59596-0.61761 0.80808-0.40548 0.0717 0.07171-0.0134 0.13037-0.18919 0.13037-0.19283 0-0.26985 0.19013-0.1942 0.47941 0.088 0.33631 0.0223 0.43985-0.21998 0.34689-0.18994-0.07289-0.34534-0.0085-0.34534 0.14314 0 0.15161 0.15502 0.27566 0.34448 0.27566 0.18947 0 0.4031 0.22412 0.47473 0.49804 0.16065 0.61431 0.17309 0.6168-0.50794-0.10166zm9.0369 0.07047c0.11303-0.35613 0.0778-0.4735-0.10773-0.35883-0.15163 0.09371-0.2757 0.04238-0.2757-0.11408s0.14008-0.23834 0.31128-0.18196c0.39754 0.13092 0.56414 1.1841 0.1873 1.1841-0.17536 0-0.21919-0.20143-0.11515-0.52922zm5.2818 0.04042c-0.63397-0.61762-0.53535-0.86846 0.10639-0.27059 0.29819 0.27781 0.4943 0.54787 0.43578 0.60012-0.0585 0.05226-0.30249-0.09603-0.54217-0.32953zm1.0583-0.2495c0-0.14178 0.19611-0.26027 0.43579-0.26332 0.35972-0.0046 0.33246-0.08499-0.15615-0.46072-0.58995-0.45365-0.59015-0.45565-0.0619-0.59379 0.29151-0.07623 0.46722-0.037 0.39047 0.08719-0.0768 0.12419-0.0209 0.2258 0.12417 0.2258 0.45548 0 0.28676 0.7172-0.23433 0.99608-0.33767 0.18072-0.49804 0.18354-0.49804 0.0088zm-12.996-0.42789c0.17976-0.07193 0.39454-0.06309 0.47729 0.01966 0.0828 0.08275-0.0643 0.1416-0.32684 0.13079-0.29009-0.01195-0.3491-0.07096-0.15045-0.15045zm4.6951 0.0041c-0.26624-0.26624-0.19113-0.62596 0.0939-0.44979 0.14296 0.08835 0.4143 0.03253 0.60296-0.12404 0.27664-0.22959 0.31711-0.18555 0.20907 0.22758-0.13152 0.50294-0.57844 0.67376-0.90594 0.34626zm5.0634-0.05361c0-0.13696 0.11206-0.31828 0.24902-0.40292 0.13696-0.08465 0.24902-0.04184 0.24902 0.09512s-0.11206 0.31828-0.24902 0.40292c-0.13696 0.08465-0.24902 0.04184-0.24902-0.09512zm-7.3286-0.2502c-0.0751-0.12144 0.0584-0.37357 0.29658-0.56029 0.38253-0.2999 0.39699-0.29325 0.12392 0.05695-0.17001 0.21804-0.23538 0.47018-0.14526 0.56029 0.0901 0.09012 0.0958 0.16385 0.0125 0.16385-0.0832 0-0.21273-0.09936-0.28778-0.2208zm3.6996-0.25708c0.34829-0.38486 0.35628-0.52968 0.0607-1.0995-0.18726-0.36094-0.43145-0.57391-0.54264-0.47326-0.1112 0.10065-0.12773 0.0529-0.0367-0.1061 0.091-0.159 0.36091-0.2604 0.59985-0.22534 0.65908 0.09673 0.65376 2.0504-6e-3 2.2229-0.44171 0.11551-0.44714 0.09243-0.0751-0.31871zm-5.3357 0.0092c0-0.13696 0.11206-0.31828 0.24902-0.40292 0.13696-0.08465 0.24902-0.04184 0.24902 0.09512s-0.11206 0.31828-0.24902 0.40292c-0.13696 0.08465-0.24902 0.04184-0.24902-0.09512zm8.1001-0.0073c-0.44525-0.174-0.42994-0.2036 0.16403-0.31715 0.4794-0.09164 0.62067-0.03547 0.52669 0.20942-0.0706 0.18406-0.14444 0.32678-0.16403 0.31715-0.0196-0.0096-0.2566-0.10386-0.52669-0.20942zm-5.6099-0.60605c0-0.22667-0.18181-0.41212-0.40402-0.41212-0.63445 0 0.0902-0.7429 0.74578-0.76456 0.51676-0.01707 0.51754-0.02277 0.0318-0.23152-0.4495-0.19316-0.43467-0.21572 0.15223-0.23152 0.55829-0.01503 0.63384 0.06845 0.53411 0.59014-0.0639 0.33421-0.32849 0.79981-0.58801 1.0347-0.43307 0.39192-0.47186 0.39314-0.47186 0.0149zm-3.387-0.22536c-0.0985-0.1712-0.0874-0.2282 0.0246-0.12667 0.11208 0.10153 0.34419 0.06808 0.5158-0.07435 0.21903-0.18179 0.36719-0.16968 0.49717 0.04064 0.11738 0.18993 0.0799 0.23455-0.10234 0.12191-0.15812-0.09773-0.2875-0.05901-0.2875 0.08603 0 0.36339-0.42943 0.33186-0.64777-0.04756zm7.3713 0.06226c0-0.13696 0.11867-0.24902 0.26372-0.24902 0.14504 0 0.19446 0.11206 0.10981 0.24902-0.0846 0.13696-0.20332 0.24902-0.26371 0.24902-0.0604 0-0.10982-0.11206-0.10982-0.24902zm1.1392 0.03016c-0.0772-0.12484 0.0272-0.29124 0.23181-0.36978 0.20466-0.07853 0.3721-0.04086 0.3721 0.08372 0 0.33756-0.44253 0.54718-0.60391 0.28606zm2.098 0.01135c0-0.11413 0.16316-0.20752 0.36257-0.20752 0.19942 0 0.30486 0.09338 0.23433 0.20752-0.0705 0.11413-0.2337 0.20752-0.36258 0.20752s-0.23432-0.09338-0.23432-0.20752zm-5.5869-0.71557c-0.13514-0.3549-0.10654-0.38351 0.1394-0.1394 0.17018 0.16892 0.24669 0.36985 0.17002 0.44652-0.0767 0.07667-0.21591-0.06154-0.30942-0.30712zm2.2252-0.07299c0.0846-0.13696 0.20332-0.24902 0.26372-0.24902s0.10981 0.11206 0.10981 0.24902-0.11867 0.24902-0.26371 0.24902c-0.14505 0-0.19446-0.11206-0.10982-0.24902zm-6.2255-0.49804c-0.0846-0.13696-0.0418-0.24902 0.0951-0.24902 0.13696 0 0.31827 0.11206 0.40292 0.24902 0.0847 0.13696 0.0418 0.24902-0.0951 0.24902-0.13696 0-0.31827-0.11206-0.40292-0.24902zm1.101-1.1442c-0.20935-0.25225-0.21239-0.3499-0.0109-0.3499 0.15373 0 0.27951 0.10157 0.27951 0.22571s0.25213 0.16362 0.56029 0.08774c0.30817-0.07588 0.47301-0.04347 0.36633 0.07202-0.32427 0.35104-0.88833 0.33425-1.1952-0.03557zm5.6665-0.06889c0.0774-0.29578 0.22933-0.59261 0.33774-0.65961 0.29494-0.18228 0.12965 0.58937-0.196 0.91503-0.21048 0.21048-0.24657 0.14545-0.14174-0.25542zm1.3256 0.23172c0-0.12888 0.11078-0.30279 0.24617-0.38646 0.14116-0.08724 0.1829 0.01272 0.0979 0.23432-0.16554 0.43141-0.34403 0.51034-0.34403 0.15214z" fill="#3276a8" stroke-width=".24902"/><path d="m169.62 63.828c0-0.14504 0.11206-0.19446 0.24902-0.10981s0.24902 0.20332 0.24902 0.26372-0.11206 0.10981-0.24902 0.10981-0.24902-0.11867-0.24902-0.26372zm-1.5564-0.15022c0.1712-0.06908 0.45134-0.06908 0.62255 0 0.1712 0.06908 0.0311 0.1256-0.31128 0.1256-0.3424 0-0.48248-0.05652-0.31127-0.1256zm-1.1828-0.30631c0-0.16787-0.12937-0.22526-0.28749-0.12754-0.18533 0.11454-0.21959 0.0678-0.0964-0.13151 0.13578-0.2197 0.26825-0.23204 0.45766-0.04263 0.14661 0.14661 0.19 0.34314 0.0964 0.43673s-0.17017 0.03281-0.17017-0.13506zm-2.9882-0.28364c0-0.13266 0.16809-0.2412 0.37353-0.2412s0.37353 0.04404 0.37353 0.09787-0.16809 0.16237-0.37353 0.2412-0.37353 0.0348-0.37353-0.09787zm1.2611-0.47506c-0.29516-0.18677-0.30109-0.29422-0.034-0.61599 0.32875-0.39613 0.76508-0.32074 0.76508 0.13218 0 0.13696-0.1311 0.16799-0.29133 0.06896-0.1959-0.12107-0.23925-0.0443-0.13233 0.23432 0.18324 0.47751 0.1722 0.484-0.30738 0.18053zm-1.0121-0.24167c0-0.14075-0.15363-0.19695-0.3414-0.1249s-0.41852-0.07154-0.51279-0.31909c-0.13145-0.3452-0.10285-0.38209 0.12272-0.15828 0.16176 0.1605 0.43721 0.2369 0.61211 0.16979 0.39344-0.15098 0.72083 0.31665 0.37244 0.53196-0.1392 0.08603-0.25308 0.04126-0.25308-0.09949zm-2.8056-0.55145c0.16891-0.17018 0.36985-0.2467 0.44652-0.17003 0.0767 0.07667-0.0615 0.21591-0.30712 0.30943-0.35491 0.13514-0.38351 0.10654-0.1394-0.1394zm0.72341-1.0897c0.0788-0.20544 0.18737-0.37353 0.2412-0.37353 0.0538 0 0.0979 0.16809 0.0979 0.37353s-0.10854 0.37353-0.2412 0.37353c-0.13267 0-0.17671-0.16809-0.0979-0.37353zm-0.65701-0.60503c0-0.34207 0.11795-0.45466 0.37353-0.35659 0.21154 0.08117 0.37353 0.0058 0.37353-0.17383 0-0.17444 0.0759-0.24128 0.16864-0.14852 0.0928 0.09275-0.0753 0.39594-0.37353 0.67375-0.54113 0.50414-0.54217 0.50415-0.54217 0.0052zm5.2226-1.8119c-0.29727-0.10997-0.4491-0.31348-0.35159-0.47126 0.11427-0.18489 0.22431-0.19249 0.32922-0.02274 0.0867 0.14024 0.50878 0.23066 0.93801 0.20094 0.47718-0.03304 0.74012 0.051 0.67669 0.21629-0.12141 0.31639-0.84965 0.3515-1.5923 0.07677zm-5.0981-0.6958c0.0847-0.13696 0.20332-0.24902 0.26372-0.24902s0.10981 0.11206 0.10981 0.24902-0.11867 0.24902-0.26372 0.24902c-0.14504 0-0.19446-0.11206-0.10981-0.24902zm6.848-0.24902c-0.22444-0.14504-0.25515-0.24292-0.077-0.24521 0.16312-0.0021 0.36583 0.10824 0.45048 0.24521 0.19107 0.30916 0.10487 0.30916-0.37353 0zm3.298 0.08358c-0.17206-0.06936-0.24949-0.22861-0.17207-0.35387 0.21862-0.35373 0.5264-0.26849 0.5264 0.14578 0 0.20544-9e-3 0.36468-0.0207 0.35387-0.0114-0.01081-0.16153-0.07641-0.33358-0.14578zm-12.852-0.27924c-0.0665-0.10761 0.095-0.19566 0.35884-0.19566 0.26386 0 0.47975 0.08805 0.47975 0.19566s-0.16147 0.19566-0.35883 0.19566-0.41325-0.08805-0.47976-0.19566zm13.788-0.30238c-0.22444-0.14504-0.25515-0.24292-0.0769-0.24521 0.16312-0.0021 0.36584 0.10825 0.45048 0.24521 0.19108 0.30916 0.10487 0.30916-0.37353 0zm-13.945-0.46865c0-0.13696 0.11205-0.31828 0.24901-0.40292 0.13697-0.08465 0.24902-0.04184 0.24902 0.09512s-0.11205 0.31828-0.24902 0.40292c-0.13696 0.08465-0.24901 0.04184-0.24901-0.09512zm4.9337 0.04952c0.17976-0.07193 0.39454-0.06309 0.47728 0.01966 0.0828 0.08275-0.0643 0.1416-0.32683 0.13079-0.2901-0.01195-0.3491-0.07096-0.15045-0.15045zm7.3928-0.07891c-0.0847-0.13696-0.0352-0.24902 0.10981-0.24902 0.14504 0 0.26372 0.11206 0.26372 0.24902s-0.0494 0.24902-0.10982 0.24902c-0.0604 0-0.17907-0.11206-0.26371-0.24902zm0.78856 0.08301c-0.0913-0.09131-0.16601-0.28181-0.16601-0.42333 0-0.15604 0.11598-0.14133 0.29467 0.03735 0.16207 0.16207 0.23678 0.35257 0.16601 0.42333-0.0708 0.07076-0.20336 0.05395-0.29467-0.03735zm-3.0016-0.37759c0.0719-0.11637 0.23508-0.14711 0.36258-0.06831 0.32581 0.20136 0.28912 0.27989-0.13077 0.27989-0.19941 0-0.30373-0.09521-0.23181-0.21158zm-11.218-0.27645c0.0935-0.24559 0.23275-0.38379 0.30942-0.30712 0.0767 0.07667 1.6e-4 0.2776-0.17002 0.44652-0.24594 0.2441-0.27454 0.2155-0.1394-0.1394zm3.906 0.15709c-0.17121-0.06908-0.30956-0.31237-0.30747-0.54063 3e-3 -0.33661 0.0454-0.34938 0.2238-0.06761 0.17676 0.27915 0.24374 0.25468 0.34083-0.12451 0.0857-0.3345 0.12926-0.27251 0.14973 0.21288 0.0159 0.37664 8.8e-4 0.67596-0.0334 0.66514-0.0342-0.01081-0.20233-0.07618-0.37353-0.14526zm0.75364-0.32822c-0.0204-0.27122 0.0665-0.55719 0.19317-0.63548 0.12818-0.07922 0.1576 0.04716 0.0663 0.28497-0.124 0.32313-0.0778 0.37534 0.18962 0.21415 0.30182-0.18195 0.30355-0.15147 0.0118 0.20817-0.42454 0.52337-0.41603 0.5247-0.46096-0.0718zm0.92724 0.24412c0-0.13696 0.11206-0.24902 0.24902-0.24902s0.24902 0.11206 0.24902 0.24902-0.11206 0.24902-0.24902 0.24902-0.24902-0.11206-0.24902-0.24902zm1.4941-0.15777c0-0.06975 0.15606-0.28289 0.34682-0.47364 0.29641-0.29641 0.3635-0.28303 0.46158 0.09205 0.0774 0.29578-0.0357 0.45021-0.34682 0.47364-0.25387 0.01912-0.46158-0.0223-0.46158-0.09205zm4.9197-0.0077c0.17205-0.06936 0.24948-0.22861 0.17206-0.35387-0.0774-0.12526-9e-3 -0.22775 0.15201-0.22775 0.17212 0 0.23799-0.20944 0.15984-0.50827-0.11152-0.42646-0.046-0.48208 0.40674-0.34554 0.7584 0.22869 1.0097 0.51577 0.64739 0.73967-0.19931 0.12318-0.24605 0.08892-0.13151-0.0964 0.10715-0.17337 0.013-0.2875-0.23719-0.2875-0.26457 0-0.36347 0.13395-0.27299 0.36973 0.13219 0.34447-0.52374 0.90238-1.006 0.85571-0.11172-0.01081-0.0624-0.07641 0.1097-0.14578zm-9.3134-0.6848c0.0271-0.45404 0.11286-0.53739 0.35026-0.34049 0.23633 0.19602 0.24421 0.34522 0.0318 0.60121-0.38373 0.46237-0.42359 0.43516-0.38202-0.26072zm6.3184 0.0856c0.1554-0.59426 0.23544-0.59932 0.53799-0.03399 0.18748 0.3503 0.14174 0.45379-0.21235 0.48046-0.32957 0.02482-0.4174-0.09559-0.32564-0.44647zm-0.83826 0.09991c0.0898-0.16016-0.0138-0.46832-0.23027-0.6848-0.33246-0.33245-0.33695-0.39361-0.0289-0.39361 0.48802 0 0.75787 0.76188 0.38959 1.1-0.21305 0.19558-0.24886 0.18965-0.13039-0.02156zm-6.1806-0.31414c-0.0788-0.1275-0.0481-0.29066 0.0683-0.36258 0.11637-0.07192 0.21158 0.0324 0.21158 0.23181 0 0.41989-0.0785 0.45658-0.27989 0.13076zm9.2376-0.14172c0.0788-0.20544 0.23989-0.37353 0.3579-0.37353s0.15006 0.16809 0.0712 0.37353c-0.0788 0.20544-0.23989 0.37353-0.3579 0.37353s-0.15006-0.16809-0.0712-0.37353zm-1.2451-0.24902c-0.0864-0.22525-1e-3 -0.37353 0.21456-0.37353 0.21583 0 0.301 0.14828 0.21456 0.37353-0.0788 0.20544-0.17538 0.37353-0.21456 0.37353-0.0392 0-0.13573-0.16809-0.21456-0.37353zm-6.8825-0.38134c0-0.13266 0.16809-0.2412 0.37353-0.2412s0.37353 0.04404 0.37353 0.09787-0.16809 0.16237-0.37353 0.2412c-0.20544 0.07884-0.37353 0.03479-0.37353-0.09787zm1.8946-0.11563c-0.2591-0.19615-0.56838-0.38906-0.68727-0.42869-0.1189-0.03963-0.26524-0.32681-0.3252-0.63818-0.0612-0.31787-6e-3 -0.50216 0.12698-0.42026 0.1298 0.08022 0.236 0.29534 0.236 0.47805 0 0.3694 0.67415 0.70895 1.0035 0.50541 0.11631-0.07188 0.19441 0.09584 0.17356 0.37272-0.0209 0.27688-0.0421 0.49986-0.0472 0.4955-5e-3 -0.0044-0.22126-0.1684-0.48036-0.36455zm6.1687-0.98521c-0.0763-0.19888-0.0662-0.47903 0.0225-0.62255 0.0939-0.1519-0.079-0.26754-0.41372-0.27673l-0.57499-0.01578 0.60251-0.24083c0.39896-0.15947 0.6892-0.15414 0.85912 0.01579 0.14845 0.14845 0.1569 0.25822 0.02 0.26042-0.13012 0.0021-0.0685 0.12473 0.13696 0.27251 0.30858 0.22198 0.29254 0.24232-0.0923 0.117-0.37344-0.12162-0.43978-0.05223-0.33459 0.35004 0.15067 0.57614-0.018 0.68095-0.22557 0.14014zm0.90145 0.11258c-0.22444-0.14504-0.25516-0.24292-0.077-0.24521 0.16312-0.0021 0.36583 0.10825 0.45048 0.24521 0.19107 0.30916 0.10487 0.30916-0.37353 0zm-1.9455-0.26458c0.0599-0.17976 0.25603-0.37586 0.43579-0.43578 0.18676-0.06226 0.28014 0.03113 0.21789 0.21789-0.0599 0.17976-0.25602 0.37586-0.43579 0.43578-0.18676 0.06226-0.28014-0.03113-0.21789-0.21789z" fill="#788ddc" stroke-width=".24902"/><path d="m160.81 62.224c0.0788-0.20544 0.18738-0.37353 0.2412-0.37353 0.0538 0 0.0979 0.16809 0.0979 0.37353s-0.10854 0.37353-0.2412 0.37353c-0.13267 0-0.17671-0.16809-0.0979-0.37353zm-2.4001-4.5922c0-0.12888 0.11077-0.30279 0.24616-0.38646 0.14116-0.08724 0.18291 0.01272 0.0979 0.23432-0.16555 0.43141-0.34403 0.51034-0.34403 0.15214zm13.588-0.19072c-0.13514-0.3549-0.10654-0.38351 0.1394-0.1394 0.17018 0.16892 0.24669 0.36985 0.17002 0.44652-0.0767 0.07667-0.21591-0.06154-0.30942-0.30712zm-12.841-0.57103c0-0.13696 0.11868-0.24902 0.26372-0.24902s0.19446 0.11206 0.10981 0.24902c-0.0846 0.13696-0.20331 0.24902-0.26371 0.24902s-0.10982-0.11206-0.10982-0.24902zm11.953 0c0-0.13696 0.11206-0.24902 0.24902-0.24902s0.24902 0.11206 0.24902 0.24902-0.11206 0.24902-0.24902 0.24902-0.24902-0.11206-0.24902-0.24902zm-12.68-0.39428c0.0119-0.29009 0.071-0.3491 0.15045-0.15045 0.0719 0.17976 0.0631 0.39454-0.0197 0.47729-0.0827 0.08275-0.1416-0.06433-0.13079-0.32684zm13.696 0c0.0119-0.29009 0.071-0.3491 0.15045-0.15045 0.0719 0.17976 0.0631 0.39454-0.0197 0.47729-0.0827 0.08275-0.1416-0.06433-0.13079-0.32684zm-1.9424-0.62255c0.0178-0.35382 0.1758-0.6433 0.35108-0.6433 0.19303 0 0.23525 0.10638 0.10707 0.26977-0.1164 0.14838-0.27438 0.43786-0.35109 0.6433-0.0767 0.20544-0.12488 0.08404-0.10706-0.26977zm-9.7615-0.12451c0.012-0.29009 0.071-0.3491 0.15045-0.15045 0.0719 0.17976 0.0631 0.39454-0.0197 0.47729-0.0827 0.08275-0.1416-0.06433-0.13079-0.32684zm1.5138-0.10376c0-0.3424 0.0565-0.48248 0.1256-0.31128s0.0691 0.45135 0 0.62255-0.1256 0.03113-0.1256-0.31127zm-5.0861-0.0309c0.16892-0.17018 0.36986-0.2467 0.44653-0.17003 0.0767 0.07667-0.0615 0.21591-0.30713 0.30943-0.3549 0.13514-0.3835 0.10654-0.1394-0.1394zm16.751 0.0309c-0.22444-0.14504-0.25515-0.24292-0.077-0.24521 0.16312-0.0021 0.36584 0.10825 0.45048 0.24521 0.19108 0.30916 0.10487 0.30916-0.37353 0zm-12.389-0.43163c-0.47756-0.16555-0.36948-0.77794 0.12451-0.70544 0.23968 0.03518 0.41617 0.14012 0.3922 0.23321-0.12086 0.46939-0.23197 0.57094-0.51671 0.47222zm4.0805-0.19235c-0.0785-0.20465-0.0409-0.3721 0.0837-0.3721 0.33756 0 0.54718 0.44253 0.28606 0.60391-0.12484 0.07716-0.29124-0.02716-0.36978-0.23181zm2.3013-0.14812c0.3088-0.28769 0.61542-0.46912 0.68136-0.40318 0.16663 0.16663-0.62447 0.92625-0.96463 0.92625-0.153 0-0.0255-0.23538 0.28327-0.52308zm-9.0587-0.59618c0-0.34011 0.13648-0.67075 0.30329-0.73476 0.49991-0.19183 0.55696 0.21267 0.11301 0.80123l-0.4163 0.55191zm8.3422 0.3722c0-0.13696 0.11868-0.24902 0.26372-0.24902s0.19446 0.11206 0.10981 0.24902c-0.0846 0.13696-0.20332 0.24902-0.26371 0.24902-0.0604 0-0.10982-0.11206-0.10982-0.24902zm4.8701-0.23333c-0.45748-0.50551-0.34012-1.0734 0.18054-0.87363 0.21741 0.08343 0.47984 1.356 0.27963 1.356-0.013 0-0.22009-0.21706-0.46017-0.48235zm-11.843 0.0031c0-0.11801 0.16809-0.27906 0.37353-0.3579 0.20544-0.07883 0.37353-0.04678 0.37353 0.07122 0 0.11801-0.16809 0.27906-0.37353 0.3579-0.20544 0.07883-0.37353 0.04678-0.37353-0.07123zm9.9608-0.39236c-0.3424-0.19573-0.51049-0.35588-0.37353-0.35588s0.52917 0.16015 0.87157 0.35588c0.3424 0.19574 0.51049 0.35588 0.37353 0.35588s-0.52917-0.16015-0.87157-0.35588zm-8.8246-0.46172c-0.32375-0.33767-0.38469-0.53582-0.18522-0.60231 0.1635-0.0545 0.23392-0.20158 0.15651-0.32684-0.0774-0.12526-0.0172-0.22775 0.13387-0.22775 0.15105 0 0.25205 0.14007 0.22444 0.31127-0.0276 0.1712 0.0374 0.51221 0.14436 0.7578 0.27737 0.63661 0.0862 0.67204-0.47396 0.08783zm0.98227 0.34007c-0.0872-0.14116 0.0127-0.18291 0.23433-0.09787 0.4314 0.16555 0.51033 0.34404 0.15214 0.34404-0.12888 0-0.30279-0.11078-0.38647-0.24617zm-0.10661-0.89517c0.0119-0.29009 0.071-0.3491 0.15045-0.15045 0.0719 0.17976 0.0631 0.39454-0.0197 0.47729s-0.1416-0.06433-0.13079-0.32684zm6.5794 0.2037c-0.13696-0.10062-0.26583-0.38652-0.28637-0.63534-0.0206-0.24881 0.0264-0.38864 0.1043-0.31073s0.37487-0.05469 0.6599-0.29467c0.51634-0.43472 0.51654-0.4343 0.0523 0.11469-0.25629 0.30306-0.39988 0.72328-0.31909 0.93382 0.16529 0.43073 0.14223 0.45174-0.211 0.19223z" fill="#6060da" stroke-width=".24902"/><path d="m160.65 61.99c0-0.19736 0.10161-0.42163 0.2258-0.49838s0.16715 0.08472 0.0955 0.35883c-0.15205 0.58146-0.32126 0.65496-0.32126 0.13955zm8.7987-1.0483c0-0.24516 0.0839-0.25843 0.33202-0.05252 0.18262 0.15156 0.33203 0.29919 0.33203 0.32807s-0.14941 0.05251-0.33203 0.05251c-0.18261 0-0.33202-0.14763-0.33202-0.32807zm-8.443-0.33598c0-0.32254 0.0842-0.40673 0.24547-0.24546s0.16127 0.32965 0 0.49092-0.24547 0.07708-0.24547-0.24546zm-1.2873-2.6679c0.51206-0.51206 0.74562-0.60588 0.96419-0.38731 0.21856 0.21857 0.12932 0.32837-0.36842 0.45329-0.36126 0.09067-0.59498 0.26496-0.51936 0.38731 0.0756 0.12235-0.0627 0.22246-0.30734 0.22246-0.37034 0-0.33168-0.11313 0.23093-0.67575zm11.39 0.41203c0-0.14504-0.0994-0.20231-0.22081-0.12725-0.12144 0.07505-0.35928-0.03039-0.52853-0.23432-0.49323-0.5943 0.32924-0.47454 0.87385 0.12725 0.2556 0.28244 0.32621 0.49804 0.1631 0.49804-0.15819 0-0.28761-0.11867-0.28761-0.26372zm-8.3199-2.1905c-0.0724-0.11718 0.14509-0.16014 0.48334-0.09548 0.33826 0.06466 0.61502 0.16053 0.61502 0.21305 0 0.19268-0.97084 0.08876-1.0984-0.11757zm-2.6369-0.27013c0-0.17444-0.14407-0.26188-0.32017-0.1943-0.18667 0.07164-0.32016-0.0612-0.32016-0.3186 0-0.2428 0.13541-0.38949 0.30091-0.32598 0.34455 0.13222 0.66457 0.8309 0.46979 1.0257-0.0717 0.0717-0.13037-0.01235-0.13037-0.18679zm-1.4941-0.85594c0-0.05171 0.1961-0.24781 0.43578-0.43578 0.39496-0.30975 0.40377-0.30094 0.094 0.09402-0.32531 0.4148-0.5298 0.54672-0.5298 0.34177zm3.1411-0.29529c-0.0822-0.21412-0.2545-0.32435-0.38296-0.24496-0.12847 0.0794-0.30396 0.03047-0.38999-0.10873-0.086-0.1392 0.0183-0.25308 0.23181-0.25308 0.21353 0 0.38823-0.13074 0.38823-0.29052 0-0.50624 0.34734 0.03402 0.43297 0.67347 0.0926 0.6918-0.0551 0.80992-0.28006 0.22382zm9.7761-0.04647c-0.30975-0.39496-0.30094-0.40377 0.094-0.09402 0.4148 0.32531 0.54672 0.5298 0.34177 0.5298-0.0517 0-0.24782-0.1961-0.43579-0.43578zm-13.415-0.57499c0-0.14504 0.11205-0.19446 0.24902-0.10981 0.13696 0.08465 0.24902 0.20332 0.24902 0.26372s-0.11206 0.10981-0.24902 0.10981c-0.13697 0-0.24902-0.11867-0.24902-0.26372zm1.1228-0.5456c0.0975-0.93002 0.11384-0.96844 0.35004-0.82246 0.12527 0.07742 0.28451-1.5e-5 0.35387-0.17207 0.0761-0.18872 0.13392-0.13994 0.14578 0.12296 0.0108 0.23968-0.14843 0.43578-0.35387 0.43578s-0.37353 0.11867-0.37353 0.26372c0 0.14504 0.14008 0.17956 0.31128 0.07671 0.2115-0.12707 0.20173-0.05197-0.0305 0.23432-0.44111 0.54381-0.47347 0.53265-0.40308-0.13896zm9.087-0.083c-0.41869-0.23232-0.48983-0.34664-0.21726-0.34911 0.22292-2e-3 0.5448 0.16442 0.7153 0.36986 0.36364 0.43816 0.32617 0.4366-0.49804-0.02075zm1.3802-0.08656c-0.0788-0.1275-0.048-0.29066 0.0683-0.36258 0.11637-0.07192 0.21158 0.0324 0.21158 0.23181 0 0.41989-0.0785 0.45658-0.27989 0.13076zm0.88618-0.1113c-0.22331-0.26907-0.17962-0.37061 0.20245-0.47052 0.41284-0.10796 0.76839 0.22033 0.76839 0.70949 0 0.24874-0.71141 0.07362-0.97084-0.23897zm-8.4919-0.16962c0-0.14504 0.11206-0.19446 0.24902-0.10981s0.24902 0.20332 0.24902 0.26372-0.11206 0.10981-0.24902 0.10981-0.24902-0.11867-0.24902-0.26372zm7.2216-0.32834c0-0.05171 0.1961-0.24781 0.43578-0.43578 0.39496-0.30975 0.40377-0.30094 0.094 0.09402-0.32531 0.4148-0.5298 0.54672-0.5298 0.34177z" fill="#49499a" stroke-width=".24902"/><path d="m164.52 52.398c-0.2531-0.30496-0.25677-0.42301-0.0132-0.42301 0.18586 0 0.33792 0.12279 0.33792 0.27287s0.30481 0.19781 0.67736 0.10607c0.37256-0.09173 0.57184-0.05255 0.44287 0.08707-0.39202 0.42439-1.0739 0.40409-1.4449-0.043z" fill="#3276a8" stroke-width=".06383"/><path d="m167.29 52.177c0.37301-0.13385 0.48523-0.09702 0.40212 0.13193-0.0634 0.1747-0.23073 0.27574-0.3718 0.22453s-0.28994 0.21902-0.33084 0.60051c-0.0409 0.3815-0.14573 0.55545-0.23296 0.38658-0.26515-0.5133-0.0134-1.1474 0.53347-1.3435z" fill="#3276a8" stroke-width=".06383"/><path d="m164.07 52.952c0.31194 0.24443 0.34054 0.35902 0.10249 0.41061-0.18163 0.03938-0.35626-0.04844-0.38805-0.19511-0.0318-0.14667-0.33978-0.12876-0.68446 0.03979-0.34467 0.16856-0.54773 0.17247-0.45126 0.0087 0.29325-0.49779 0.96398-0.62239 1.4213-0.264z" fill="#3276a8" stroke-width=".06383"/><path d="m166.18 53.121c0.0746-0.07459-0.0248-0.38043-0.22084-0.67963-0.48762-0.74421-0.32617-0.7541 0.37876-0.02322 0.55373 0.57414 0.56196 0.61474 0.14656 0.72338-0.24206 0.0633-0.37907 0.05406-0.30448-0.02053z" fill="#73a7d0" stroke-width=".04773"/><path d="m165.62 53.428c9e-3 -0.10508-0.26316-0.27584-0.60552-0.3795-0.85155-0.25782-0.73408-0.36901 0.27558-0.26088 0.79312 0.08497 0.82548 0.11082 0.57662 0.46072-0.14502 0.20389-0.25602 0.28472-0.24669 0.17965z" fill="#73a7d0" stroke-width=".04773"/><path d="m163.09 52.22c0.0734 0.07575 0.15633 0.15087 0.45855-0.04048 0.75171-0.47598 0.98352-0.48414 0.24174 0.20932-0.58269 0.54472-0.62341 0.55232-0.72557 0.13528-0.0595-0.24302-0.0481-0.37986 0.0253-0.30412z" fill="#73a7d0" stroke-width=".04773"/><path d="m165.84 53.366c0-0.37253 0.14949-0.73468 0.3322-0.80479 0.54756-0.21011 0.61004 0.23294 0.12378 0.8776l-0.45598 0.60451z" fill="#6060da" stroke-width=".05783"/><path d="m164.31 53.091c-0.31831-0.19354-0.55009-0.50942-0.51507-0.70196 0.10494-0.57702 0.51596-0.40024 0.81417 0.35017l0.27964 0.70367z" fill="#6060da" stroke-width=".05783"/><path transform="translate(-1.811e-6)" d="m159.41 73.492c9.7e-4 -0.1712 0.2251-1.9763 0.49804-4.0114 0.30996-2.3111 0.49625-5.1084 0.49625-7.4517v-3.7516l-1.2622 1.1857-3.3375-3.3375 4.7143-4.734h1.419c1.3062 4.22e-4 1.9973 4.22e-4 3.4655 4.22e-4 1.5952 0.0034 2.1629 0.0065 3.428-4.22e-4h1.419l4.7143 4.734-3.3499 3.3499-0.52547-0.52546c-0.31895-0.31895-0.88202-0.86606-0.7265-0.96217 0.14092-0.08709 0.78511 0.34577 0.87268 0.62168 0.0876 0.27591 0.23922 0.50166 0.337 0.50166 0.0978 0 0.84131-0.67053 1.6523-1.4901l1.4745-1.4901-0.68977-0.71997c-0.92588-0.9664-1.8744-0.96811-2.2383-4e-3 -0.14863 0.39376-0.45111 0.71593-0.67217 0.71593-0.68831 0-0.70445-0.25527-0.06-0.94919 0.5154-0.55498 0.55298-0.6833 0.21983-0.75054-0.22102-0.04461-0.33784-0.18468-0.2596-0.31127 0.15425-0.24958 0.15169-0.25038-1.1322-0.35468-1.1673-0.09483-1.1743-0.09818-0.75541-0.3631 0.2315-0.14641 0.48218-0.13386 0.6848 0.0343 0.24027 0.19941 0.31963 0.15259 0.31963-0.18856 0-0.33541 0.0729-0.38093 0.27936-0.17446 0.31141 0.31141 0.97624 0.02427 0.97624-0.36228 0-0.13696-0.17391-0.18228-0.38647-0.10072-0.21255 0.08156-0.3282 0.05403-0.25699-0.06118-0.3052-0.41653-0.62335-0.78088-0.62335-0.78088h-9.2016c-0.92608 0.81609-1.6352 1.4635-0.87246 1.2721 0.92963-0.23332 0.82884 0.63643-0.12256 1.0576-0.6325 0.27997-0.70603 0.40284-0.48652 0.81299 0.14222 0.26575 0.19155 0.59164 0.10963 0.7242-0.0837 0.1354 0.0204 0.17604 0.2375 0.09272 0.21255-0.08156 0.38646-0.02425 0.38646 0.12736 0 0.59977-0.89772 0.24696-1.1635-0.45728-0.22385-0.59305-0.40393-0.71938-0.94346-0.66185-0.36674 0.0391-0.96534 0.36964-1.3302 0.73453l-0.66344 0.66344 1.5313 1.5313c1.3774 1.3774 1.5698 1.4928 1.914 1.1486 0.21046-0.21046 0.32675-0.43857 0.25841-0.50691-0.0683-0.06834 0.15716-0.19488 0.50111-0.2812 0.42117-0.10571 0.57887-0.27809 0.48299-0.52794-0.0897-0.2338 6e-3 -0.37099 0.25781-0.37099 0.31481 0 0.40017 0.26871 0.40017 1.2598 0 0.93555-0.0801 1.2146-0.31127 1.0841-0.24902-0.14059-0.24902-0.10867 0 0.15962 0.34255 0.36906 0.4263 0.83427 0.11561 0.64226-0.10761-0.06651-0.19566 0.08674-0.19566 0.34055s0.088 0.40706 0.19566 0.34055c0.10761-0.06651 0.19566-0.01424 0.19566 0.11615s-0.16809 0.30158-0.37353 0.38041c-0.27489 0.10549-0.37353 0.53994-0.37353 1.6453v1.5019h9.4628v-1.2539c0-0.76327-0.16883-1.5184-0.43149-1.9299-0.42379-0.66398-0.42268-0.66946 0.0623-0.3068 0.49093 0.36714 0.49097 0.366 7e-3 -0.2007-0.41459-0.48522-0.43962-0.64577-0.16838-1.0801 0.17523-0.28059 0.19828-0.4358 0.0512-0.3449-0.17706 0.10943-0.2674-0.26034-0.2674-1.0945 0-0.9066 0.0966-1.2598 0.34449-1.2598 0.30067 0 0.74009 0.82082 0.68671 1.2828-0.21317 1.845 0.038 8.0387 0.4479 11.044 0.28022 2.0544 0.51029 3.8754 0.51127 4.0466 1e-3 0.22828-0.65877 0.31128-2.4757 0.31128h-2.4775l-0.43173-1.3696c-0.23745-0.75328-0.50286-1.3696-0.5898-1.3696-0.0869 0-0.35234 0.61632-0.58979 1.3696l-0.43173 1.3696h-2.4775c-1.8169 0-2.477-0.08299-2.4757-0.31128zm-0.33609-18.783c-0.0926-0.09256 0.0849-0.44681 0.39428-0.78721 0.30942-0.34041 0.43207-0.54412 0.27257-0.45271-0.15951 0.09142-0.32759 0.05899-0.37353-0.07206-0.0459-0.13105-0.36367-0.02529-0.70607 0.23502-0.61597 0.46829-0.61729 0.47729-0.12451 0.85135 0.51191 0.3886 0.83658 0.52493 0.53726 0.22561zm12.961-1.1133c-0.75021-0.59269-1.288-0.31602-0.67164 0.34554 0.26306 0.28236 0.40892 0.63649 0.32414 0.78695-0.0848 0.15046 0.0755 0.04944 0.35614-0.22448l0.5103-0.49804zm-5.2785-0.71468c0.086-0.1392 0.26073-0.18861 0.38823-0.10981 0.3454 0.21347 0.281 0.3629-0.15641 0.3629-0.21353 0-0.31784-0.11389-0.23182-0.25308z" fill="#010080" stroke-width=".24902"/></g></g></svg>
